<svg width="89" height="100" viewBox="0 0 89 100" fill="none" xmlns="http://www.w3.org/2000/svg">
<path d="M8.02143 90.0036L0 0H88.1714L80.1393 89.9893L44.0321 100L8.02143 90.0036Z" fill="#1572B6"/>
<path d="M44.0858 92.3499L73.2644 84.2606L80.1287 7.3606H44.0858V92.3499Z" fill="#33A9DC"/>
<path d="M44.0858 39.9679H58.693L59.7001 28.6643H44.0858V17.625H44.1251H71.7644L71.5001 20.5857L68.7894 51.0071H44.0858V39.9679Z" fill="white"/>
<path d="M44.1535 68.6359L44.1035 68.6501L31.8106 65.3287L31.0249 56.5251H25.0499H19.9427L21.4892 73.8573L44.0999 80.1359L44.1535 80.1216V68.6359Z" fill="#EBEBEB"/>
<path d="M57.7537 50.5393L56.4251 65.3215L44.1144 68.6429V80.1286L66.743 73.8572L66.9108 71.9929L68.8287 50.5393H57.7537Z" fill="white"/>
<path d="M44.1248 17.625V24.4821V28.6357V28.6643H17.4962H17.4605L17.239 26.1821L16.7355 20.5857L16.4712 17.625H44.1248Z" fill="#EBEBEB"/>
<path d="M44.0855 39.9678V46.8249V50.9785V51.0071H31.9819H31.9462L31.7247 48.5249L31.2247 42.9285L30.9604 39.9678H44.0855Z" fill="#EBEBEB"/>
</svg>
