<svg width="100" height="100" viewBox="0 0 100 100" fill="none" xmlns="http://www.w3.org/2000/svg">
<path d="M98.1158 45.5452L54.4534 1.88615C51.9407 -0.628717 47.8623 -0.628717 45.3463 1.88615L36.2799 10.9526L47.7811 22.4539C50.454 21.5508 53.5186 22.1565 55.6494 24.2873C57.7901 26.4313 58.3914 29.5223 57.4664 32.2039L68.5507 43.2882C71.2324 42.3643 74.3266 42.9623 76.4684 45.1074C79.4616 48.0996 79.4616 52.9494 76.4684 55.9437C73.474 58.9381 68.6242 58.9381 65.6288 55.9437C63.3772 53.69 62.8209 50.3829 63.961 47.6091L53.6239 37.272L53.6228 64.4748C54.3525 64.8368 55.0415 65.3185 55.6494 65.9242C58.6427 68.9164 58.6427 73.7662 55.6494 76.7627C52.655 79.756 47.8031 79.756 44.8131 76.7627C41.8198 73.7662 41.8198 68.9164 44.8131 65.9242C45.5526 65.1858 46.4085 64.6273 47.3214 64.252V36.7958C46.4085 36.4228 45.5537 35.8676 44.8131 35.1237C42.5451 32.859 41.9998 29.531 43.1617 26.7463L31.8251 15.4074L1.88697 45.3433C-0.628991 47.8604 -0.628991 51.9388 1.88697 54.4537L45.5493 98.1138C48.0631 100.629 52.1404 100.629 54.6575 98.1138L98.1158 54.6567C100.631 52.1407 100.631 48.0601 98.1158 45.5452Z" fill="#DE4C36"/>
</svg>
