<svg width="89" height="100" viewBox="0 0 89 100" fill="none" xmlns="http://www.w3.org/2000/svg">
<path d="M8.025 90.0036L0 0H88.1786L80.1428 89.9893L44.0357 100L8.025 90.0036Z" fill="#E44F26"/>
<path d="M44.0892 92.3499L73.2678 84.2606L80.1321 7.3606H44.0892V92.3499Z" fill="#F1662A"/>
<path d="M44.0892 40.7392H29.4821L28.4749 29.4356H44.0892V18.3964H44.0499H16.4106L16.6749 21.3606L19.3856 51.7785H44.0892V40.7392Z" fill="#EBEBEB"/>
<path d="M44.0895 69.4072L44.0395 69.4215L31.7466 66.1036L30.9609 57.3H24.9859H19.8788L21.4252 74.6286L44.0395 80.9072L44.0895 80.8929V69.4072Z" fill="#EBEBEB"/>
<path d="M44.0499 40.7391V51.7784H57.6428L56.3642 66.0963L44.0499 69.4177V80.9034L66.6821 74.6284L66.8464 72.7641L69.4392 43.7034L69.7106 40.7391H66.7356H44.0499Z" fill="white"/>
<path d="M44.0499 18.3964V25.2535V29.4106V29.4356H70.6785H70.7142L70.9356 26.9571L71.4392 21.3606L71.7035 18.3964H44.0499Z" fill="white"/>
</svg>
