<svg width="100" height="100" viewBox="0 0 100 100" fill="none" xmlns="http://www.w3.org/2000/svg">
<path d="M0 0H100V100H0V0Z" fill="#F7DF1E"/>
<path d="M26.2937 83.5674L33.9464 78.9361C35.4228 81.5538 36.7658 83.7685 39.9872 83.7685C43.0752 83.7685 45.022 82.5606 45.022 77.8622V45.9098H54.4195V77.995C54.4195 87.7284 48.7141 92.1587 40.3901 92.1587C32.8725 92.1587 28.5087 88.2652 26.2936 83.5666" fill="black"/>
<path d="M59.5238 82.5603L67.1756 78.1299C69.1898 81.4195 71.8078 83.8358 76.4392 83.8358C80.333 83.8358 82.816 81.889 82.816 79.2039C82.816 75.9818 80.2654 74.8406 75.9692 72.9617L73.6205 71.9541C66.8403 69.0682 62.3427 65.4434 62.3427 57.7909C62.3427 50.7426 67.7127 45.3723 76.1038 45.3723C82.0781 45.3723 86.3741 47.4534 89.4616 52.8907L82.1448 57.5893C80.5336 54.7031 78.7889 53.5622 76.104 53.5622C73.3517 53.5622 71.6063 55.3074 71.6063 57.5893C71.6063 60.4087 73.3517 61.5501 77.3789 63.2955L79.7281 64.3023C87.7162 67.726 92.2138 71.2161 92.2138 79.0696C92.2138 87.528 85.5684 92.1593 76.6408 92.1593C67.9144 92.1593 62.2755 87.9977 59.5238 82.5603Z" fill="black"/>
</svg>
