<svg width="74" height="100" viewBox="0 0 74 100" fill="none" xmlns="http://www.w3.org/2000/svg">
<path d="M23.7512 77.3344C23.7512 77.3344 19.9323 79.5567 26.4726 80.3065C34.3973 81.2118 38.4469 81.082 47.1775 79.4317C47.1775 79.4317 49.4775 80.8697 52.6836 82.1162C33.1051 90.5039 8.37536 81.63 23.7512 77.3344ZM21.3575 66.3871C21.3575 66.3871 17.0731 69.5587 23.619 70.2365C32.0844 71.1105 38.7682 71.1818 50.3395 68.9547C50.3395 68.9547 51.9362 70.5769 54.4509 71.463C30.7842 78.3846 4.42425 72.0077 21.3575 66.3871Z" fill="#0074BD"/>
<path d="M41.5241 47.8138C46.3509 53.3696 40.2584 58.3646 40.2584 58.3646C40.2584 58.3646 52.5067 52.0429 46.8828 44.1231C41.6283 36.7408 37.6003 33.0741 59.4083 20.426C59.4083 20.4268 25.1757 28.974 41.5241 47.8138Z" fill="#EA2D2E"/>
<path d="M67.417 85.4328C67.417 85.4328 70.2442 87.7641 64.3023 89.5658C53.0049 92.9882 17.2718 94.02 7.3476 89.7028C3.78182 88.1502 10.4712 85.9976 12.5757 85.5434C14.77 85.0683 16.0229 85.1549 16.0229 85.1549C12.055 82.3614 -9.62328 90.6425 5.01314 93.0178C44.9256 99.4877 77.7683 90.1042 67.417 85.4328ZM25.5899 55.0424C25.5899 55.0424 7.41569 59.3597 19.1545 60.9291C24.1118 61.5924 33.9896 61.4402 43.1968 60.6679C50.7193 60.0358 58.2683 58.6859 58.2683 58.6859C58.2683 58.6859 55.6182 59.8227 53.6987 61.1317C35.2393 65.9873 -0.41203 63.7258 9.85269 58.762C18.5304 54.565 25.5899 55.0424 25.5899 55.0424ZM58.193 73.2655C76.9559 63.5183 68.2798 54.1508 62.2242 55.4126C60.7437 55.721 60.0796 55.9894 60.0796 55.9894C60.0796 55.9894 60.6308 55.125 61.6818 54.7532C73.6609 50.5434 82.8722 67.173 57.818 73.7598C57.818 73.7582 58.1056 73.4978 58.193 73.2655Z" fill="#0074BD"/>
<path d="M46.8828 0C46.8828 0 57.2717 10.3953 37.0267 26.3752C20.7912 39.1979 33.3247 46.5073 37.0211 54.8622C27.543 46.3118 20.5909 38.7837 25.2543 31.7779C32.1022 21.4964 51.0735 16.5094 46.8828 0Z" fill="#EA2D2E"/>
<path d="M27.434 99.6864C45.4399 100.838 73.0977 99.0455 73.7522 90.5248C73.7522 90.5248 72.4936 93.7549 58.8698 96.3177C43.4996 99.2113 24.5387 98.874 13.2966 97.0178C13.2966 97.0186 15.5998 98.9253 27.434 99.6864Z" fill="#0074BD"/>
</svg>
