<svg width="104" height="100" viewBox="0 0 104 100" fill="none" xmlns="http://www.w3.org/2000/svg">
<path d="M52.9716 85.7719C52.2817 85.6161 51.6109 85.4003 50.9376 85.2011L50.4301 85.047C49.7718 84.8453 49.1193 84.6328 48.4702 84.4095L48.201 84.312C47.6194 84.1078 47.0444 83.892 46.4728 83.6712L45.9878 83.4804C45.3611 83.2329 44.7378 82.9746 44.1229 82.7046L43.7504 82.5396C43.2212 82.2996 42.6979 82.0579 42.1763 81.8071L41.7213 81.5888C41.3122 81.3896 40.9072 81.178 40.5039 80.9697C40.2339 80.8272 39.9589 80.693 39.6914 80.5447C39.1981 80.2805 38.7139 80.0064 38.2323 79.7264L37.7398 79.4514C37.099 79.0747 36.4657 78.6839 35.8399 78.2873L35.3274 77.9456C34.8725 77.6531 34.4208 77.3548 33.975 77.0465L33.5392 76.7407C33.1092 76.4365 32.6842 76.129 32.2609 75.8166L31.6951 75.3882C31.3084 75.0924 30.9226 74.7941 30.5418 74.4866L30.0277 74.0741C29.5435 73.675 29.0644 73.275 28.5911 72.8633L28.4344 72.7309C27.9228 72.2817 27.4203 71.8209 26.9245 71.3584L26.4995 70.9493C26.132 70.5993 25.7704 70.2468 25.4146 69.8851L24.9896 69.461C24.5371 68.9977 24.0929 68.5285 23.6571 68.0527L23.5921 67.9827C23.1313 67.4794 22.6822 66.9653 22.2414 66.4461L21.888 66.0262C21.5589 65.6303 21.2339 65.2295 20.9156 64.8245L20.5598 64.3812C20.1773 63.8846 19.8031 63.3904 19.4373 62.8863C9.31278 49.0753 5.67461 30.0278 13.7676 14.3852L6.59207 23.4856C-2.59834 36.6942 -1.45423 53.8809 5.56629 67.9169C5.73294 68.2536 5.90877 68.5844 6.08043 68.9152L6.40958 69.5477L6.61374 69.9118L6.97956 70.5668C7.19788 70.9509 7.4212 71.3334 7.65036 71.7159L8.03201 72.3459C8.28533 72.755 8.54448 73.1592 8.81031 73.5625L9.14196 74.0741C9.50694 74.6199 9.88192 75.1649 10.2686 75.6999L10.3011 75.7415L10.4911 75.9982C10.8244 76.459 11.1694 76.914 11.5177 77.364L11.9035 77.8556C12.2143 78.2464 12.5301 78.6348 12.8526 79.0214L13.2151 79.4547C13.6468 79.963 14.0876 80.4688 14.5367 80.9646L14.5634 80.9921L14.615 81.0488C15.0534 81.528 15.5033 81.9963 15.9583 82.4646L16.3891 82.8987C16.7416 83.2537 17.0999 83.6029 17.4616 83.9503L17.8999 84.367C18.3832 84.8228 18.8715 85.2694 19.3698 85.7061L19.3932 85.7244L19.649 85.9428C20.0873 86.3227 20.5339 86.7002 20.9848 87.0702L21.5381 87.511C21.9055 87.806 22.2772 88.096 22.6513 88.381L23.2463 88.8335C23.6588 89.1376 24.0754 89.4368 24.4954 89.7292L24.9504 90.0517L25.0754 90.1409C25.4737 90.415 25.8812 90.6792 26.2887 90.9434L26.8137 91.2933C27.4378 91.6883 28.0719 92.0791 28.7119 92.4566L29.2369 92.7524C29.7077 93.0241 30.1818 93.2907 30.6626 93.5516C30.9226 93.6916 31.1893 93.8241 31.4509 93.9582C31.7901 94.1357 32.1267 94.3157 32.4717 94.4882L32.7076 94.6024L33.125 94.804C33.6592 95.059 34.1975 95.3098 34.7416 95.5515L35.0833 95.7048C35.7066 95.9773 36.3349 96.239 36.969 96.4889L37.4282 96.6698C38.0148 96.8956 38.6098 97.1189 39.2073 97.3289L39.4306 97.4064C40.0855 97.6356 40.748 97.848 41.4147 98.0555L41.8938 98.1989C42.5721 98.403 43.2421 98.6472 43.942 98.7763C88.3892 106.882 101.3 72.0667 101.3 72.0667C90.4558 86.1944 71.2083 89.9209 52.9716 85.7719ZM36.9607 49.7477C37.9565 51.1752 39.0606 52.8734 40.3814 54.02C40.8605 54.5475 41.3613 55.0625 41.873 55.5683L42.2663 55.9558C42.7629 56.4374 43.2679 56.9107 43.7895 57.3707L43.8512 57.424L43.8662 57.4391C44.4437 57.9457 45.0395 58.4315 45.6453 58.9115L46.0486 59.2265C46.6561 59.6923 47.2752 60.1489 47.9094 60.5856L47.9635 60.6264C48.2435 60.8197 48.5293 60.9997 48.8135 61.1864L49.2151 61.4522C49.6684 61.743 50.1284 62.0263 50.5951 62.298L50.7901 62.4113C51.1925 62.643 51.6009 62.8713 52.0092 63.093L52.4433 63.3188C52.7258 63.4663 53.0083 63.6171 53.2966 63.7604L53.4258 63.8188C54.0108 64.1071 54.6016 64.3854 55.2057 64.6479L55.599 64.8096C56.0807 65.0145 56.5681 65.2145 57.0573 65.4012L57.6822 65.6303C58.1264 65.7953 58.5722 65.9453 59.0222 66.0962L59.628 66.2903C60.2671 66.4886 60.8988 66.7395 61.5646 66.8503C95.8822 72.5359 103.804 46.1129 103.804 46.1129C96.663 56.3983 82.8319 61.3064 68.0734 57.4749C67.4176 57.3024 66.7718 57.1157 66.1294 56.9132L65.5461 56.7241C65.0894 56.5766 64.6361 56.4199 64.1861 56.2558L63.5728 56.0275C63.0803 55.8375 62.5929 55.6425 62.1096 55.4375L61.7154 55.2708C61.1096 55.0075 60.513 54.7292 59.9255 54.4384C59.6222 54.2909 59.3247 54.135 59.0272 53.9817L58.5089 53.7151C58.1272 53.5084 57.7472 53.2934 57.3731 53.0734L57.1014 52.9193C56.6365 52.6484 56.1798 52.3685 55.7265 52.0793L55.3115 51.8026C55.0132 51.6093 54.7141 51.4118 54.4207 51.2135C53.7883 50.7769 53.1733 50.3202 52.5658 49.8569L52.1483 49.5277C45.6886 44.428 40.568 37.4566 38.1331 29.5528C35.5816 21.3565 36.1324 12.1553 40.5522 4.68729L35.1216 12.3536C28.4744 21.9182 28.8361 34.7226 34.0208 44.838C34.8899 46.5362 35.8674 48.182 36.9607 49.7477ZM73.1315 37.9158C73.414 38.0199 73.6965 38.1133 73.9832 38.2108L74.359 38.3299C74.7623 38.4566 75.164 38.6041 75.5814 38.6832C94.5297 42.3447 99.6703 28.9595 101.038 26.9888C96.5355 33.471 88.97 35.0267 79.6862 32.7735C78.9529 32.596 78.1463 32.331 77.4397 32.0802C76.5331 31.7569 75.6398 31.3886 74.7723 30.9728C73.1232 30.1803 71.5525 29.2195 70.0958 28.1196C61.7887 21.8157 56.6281 9.79205 62.0487 0L59.1155 4.04232C55.1974 9.80872 54.8124 16.9701 57.5314 23.3381C60.3988 30.0978 66.2744 35.4001 73.1315 37.9158Z" fill="#0868AC"/>
</svg>
