<svg version="1.0" xmlns="http://www.w3.org/2000/svg"
 width="267.000000pt" height="267.000000pt" viewBox="0 0 267.000000 267.000000"
 preserveAspectRatio="xMidYMid meet">

<g transform="translate(0.000000,267.000000) scale(0.100000,-0.100000)"
fill="#000000" stroke="none">
<path d="M2439 2423 c-2 -6 -94 -27 -209 -47 -112 -20 -208 -40 -213 -45 -4
-4 -10 -32 -11 -62 -3 -50 -3 -51 4 -14 5 24 7 -25 5 -125 -5 -239 -42 -379
-141 -532 -224 -346 -588 -474 -1405 -495 l-258 -6 -10 -51 c-33 -163 -58
-493 -55 -735 l1 -104 34 -14 c69 -29 266 -74 388 -88 158 -19 253 -19 411 0
524 61 979 344 1273 790 264 402 350 890 241 1369 -27 116 -48 178 -55 159z
m-70 -180 c29 -29 59 -115 82 -235 9 -51 10 -89 2 -165 -6 -54 -11 -138 -12
-188 -2 -190 -37 -333 -127 -524 -91 -192 -194 -338 -340 -485 -199 -198 -410
-326 -684 -414 -301 -96 -624 -102 -892 -17 -106 34 -162 103 -157 193 3 38 0
47 -14 50 -21 4 -21 12 -1 143 34 233 58 311 106 354 21 19 44 35 51 35 18 0
318 38 437 56 559 82 849 214 1053 477 117 150 185 305 231 525 29 136 37 157
74 187 37 29 51 34 110 34 46 1 58 -3 81 -26z"/>
<path d="M132 300 c0 -19 2 -27 5 -17 2 9 2 25 0 35 -3 9 -5 1 -5 -18z"/>
</g>
</svg>
