<svg width="102" height="100" viewBox="0 0 102 100" fill="none" xmlns="http://www.w3.org/2000/svg">
<path fill-rule="evenodd" clip-rule="evenodd" d="M24.2188 16.5755C23.2558 16.5724 22.2965 16.6946 21.365 16.939V17.0663H21.5031C22.1703 18.0733 22.9141 19.0274 23.728 19.92C24.2878 21.0325 24.775 22.1412 25.3312 23.2537C25.4002 23.1846 25.4693 23.1119 25.4693 23.1119C25.9857 22.7019 26.3899 22.1679 26.6442 21.5595C26.8985 20.9512 26.9946 20.2883 26.9235 19.6328C26.619 19.1634 26.3399 18.678 26.0873 18.1787C25.6693 17.4843 24.7641 17.1353 24.2078 16.5791" fill="#5D87A1"/>
<path fill-rule="evenodd" clip-rule="evenodd" d="M93.2725 77.2426C88.6868 76.9205 84.0853 77.5849 79.778 79.1912C78.7347 79.6092 77.0697 79.6092 76.9243 80.9289C77.4841 81.4851 77.5495 82.383 78.0403 83.1574C78.9925 84.7695 80.2162 86.2048 81.6575 87.3998C83.1116 88.5122 84.5658 89.621 86.1108 90.5953C88.8192 92.2712 91.8838 93.2419 94.5231 94.9105C96.0572 95.8848 97.584 97.1353 99.1182 98.1823C99.8816 98.7385 100.365 99.6365 101.339 100V99.7891C101.053 99.0166 100.699 98.2709 100.281 97.5607C99.5871 96.87 98.8891 96.241 98.1911 95.5467C96.1519 92.8503 93.7123 90.4817 90.9568 88.5232C88.7283 86.989 83.8569 84.8878 82.959 82.343L82.8172 82.2012C84.4478 81.9702 86.0548 81.5955 87.6195 81.0816C89.9825 80.4563 92.1383 80.5981 94.5703 79.991C95.6864 79.711 97.704 79.0167 97.704 79.0167V77.9261C96.4607 76.69 95.57 75.0359 94.2613 73.869C90.7008 70.761 86.9064 67.9316 82.9117 65.4059C80.7777 64.0281 78.0258 63.141 75.7537 61.9668C74.9321 61.5524 73.5724 61.3488 73.0744 60.6581C71.9444 59.0003 70.9984 57.2242 70.2533 55.3613C68.2612 51.5806 66.3308 47.389 64.6149 43.3901C63.5993 40.7102 62.4279 38.0919 61.1068 35.5486C54.7316 24.7096 45.5295 15.8079 34.485 9.79568C31.6983 8.44679 28.7354 7.49711 25.6838 6.97463C23.9606 6.90192 22.2447 6.76742 20.5252 6.70198C19.4152 5.97478 18.3594 5.16803 17.3661 4.2881C13.4326 1.79787 3.32628 -3.55339 0.432531 3.53194C-1.42151 8.00707 3.18814 12.4059 4.76952 14.678C6.10295 16.28 7.27782 18.0076 8.27765 19.8366C8.76115 21.0071 8.89929 22.2468 9.36826 23.4719C10.3774 26.6169 11.5756 29.698 12.9564 32.6985C13.6949 34.1814 14.5456 35.6058 15.5011 36.9591C16.0573 37.7189 17.0171 38.0497 17.2243 39.3039C16.4619 40.9426 15.9286 42.6784 15.6393 44.4625C14.4376 48.2575 13.9953 52.252 14.3378 56.2179C14.6802 60.1838 15.8007 64.0434 17.6351 67.5762C18.7257 69.2957 21.3504 73.0801 24.8586 71.6332C27.9522 70.3972 27.2652 66.4747 28.1595 63.0392C28.363 62.2067 28.2285 61.6614 28.6393 61.1125V61.7814C28.6393 61.7814 30.3952 65.6385 31.2677 67.598C33.6404 71.1934 36.588 74.3743 39.9926 77.0136C41.3393 78.1893 42.4242 79.6347 43.1772 81.2561V82.503H44.7295C44.6971 81.9408 44.5413 81.3926 44.273 80.8974C44.0047 80.4023 43.6305 79.9724 43.1772 79.6383C41.9042 78.3281 40.7384 76.9179 39.6908 75.4213C36.8453 71.3686 34.3358 67.0901 32.1874 62.6284C31.0968 60.4472 30.1771 58.0552 29.3046 55.8776C28.9047 55.0378 28.9047 53.7691 28.2322 53.3328C26.9903 54.8021 25.9127 56.4027 25.0185 58.106C23.933 61.5489 23.3011 65.1187 23.139 68.7249C22.8736 68.7977 23.0045 68.7249 22.8736 68.8631C20.7324 68.2996 19.9944 65.9839 19.1874 64.0208C17.1025 57.9663 16.8922 51.4237 18.5839 45.2478C19.0492 43.7754 21.0669 39.1367 20.2598 37.7298C19.8563 36.3884 18.5148 35.6213 17.7805 34.5634C16.843 33.1402 16.0363 31.6351 15.3702 30.0665C13.7743 26.1548 12.9673 21.7924 11.2296 17.8516C10.2676 15.9564 9.14762 14.1456 7.88139 12.4386C6.48074 10.7334 5.24523 8.89896 4.1915 6.96009C3.85704 6.18576 3.38808 4.92065 3.92248 4.07724C3.95855 3.84297 4.06996 3.62682 4.23985 3.46152C4.40974 3.29622 4.62886 3.19077 4.86404 3.16113C5.72926 2.39043 8.21221 3.37198 9.08106 3.79369C11.4163 4.71299 13.6406 5.89222 15.712 7.30908C16.6499 8.01435 18.8602 9.79931 18.8602 9.79931H19.5146C21.7394 10.2828 24.2405 9.93382 26.3345 10.5627C29.8602 11.738 33.2248 13.3501 36.3499 15.3614C45.5608 21.2331 53.0487 29.4436 58.0494 39.1549C58.8856 40.7508 59.2382 42.2159 60.0016 43.8809C61.4558 47.2981 63.2734 50.7881 64.7276 54.1108C66.0104 57.3982 67.6695 60.526 69.6717 63.4319C70.7114 64.886 74.8884 65.6567 76.7679 66.4201C78.4001 66.9848 80.0019 67.634 81.5666 68.3651C83.9332 69.8192 86.2926 71.4951 88.5211 73.091C89.6298 73.9272 93.1089 75.6649 93.3197 77.0572" fill="#00758F"/>
</svg>
