<svg width="100" height="53" viewBox="0 0 100 53" fill="none" xmlns="http://www.w3.org/2000/svg">
<path d="M50 52.6071C77.6142 52.6071 100 40.8306 100 26.3036C100 11.7765 77.6142 0 50 0C22.3858 0 0 11.7765 0 26.3036C0 40.8306 22.3858 52.6071 50 52.6071Z" fill="url(#paint0_radial_7_2544)"/>
<path d="M49.9999 50.6535C76.5352 50.6535 98.0463 39.7516 98.0463 26.3035C98.0463 12.8554 76.5352 1.95349 49.9999 1.95349C23.4646 1.95349 1.95349 12.8554 1.95349 26.3035C1.95349 39.7516 23.4646 50.6535 49.9999 50.6535Z" fill="#6280B6"/>
<path d="M59.7321 34.1608L62.1142 21.8965C62.4536 20.8469 62.5095 19.7262 62.2761 18.6481C62.0428 17.5699 61.5286 16.5726 60.7857 15.7572C58.7118 14.2846 56.1725 13.618 53.6428 13.8822H49.5249L50.7071 7.81077C50.7286 7.69772 50.725 7.58131 50.6964 7.46985C50.6677 7.35838 50.6149 7.2546 50.5415 7.16591C50.4682 7.07723 50.3762 7.00581 50.2721 6.95677C50.168 6.90773 50.0543 6.88227 49.9392 6.8822H44.225C44.0435 6.88215 43.8677 6.94518 43.7276 7.0605C43.5875 7.17583 43.4919 7.33627 43.4571 7.51435L40.9249 20.5358C40.7301 19.1435 40.1387 17.8368 39.2214 16.7715C38.2001 15.7487 36.968 14.9609 35.6109 14.4631C34.2539 13.9654 32.8047 13.7695 31.3642 13.8893H20.3571C20.1756 13.8893 19.9998 13.9523 19.8597 14.0676C19.7197 14.183 19.624 14.3434 19.5892 14.5215L14.4678 40.8786C14.4463 40.9917 14.4499 41.1081 14.4785 41.2196C14.5072 41.331 14.56 41.4348 14.6334 41.5235C14.7067 41.6122 14.7987 41.6836 14.9028 41.7326C15.0069 41.7817 15.1206 41.8071 15.2357 41.8072H20.9607C21.1421 41.8073 21.3179 41.7442 21.458 41.6289C21.5981 41.5136 21.6937 41.3531 21.7285 41.1751L22.9678 34.8001H27.2535C29.1458 34.8506 31.0345 34.6097 32.8535 34.0858C34.3872 33.5783 35.7898 32.738 36.9607 31.6251C37.9202 30.751 38.7393 29.7343 39.3892 28.6108L38.3642 33.8786C38.3427 33.9917 38.3464 34.1081 38.375 34.2196C38.4036 34.331 38.4565 34.4348 38.5298 34.5235C38.6031 34.6122 38.6951 34.6836 38.7992 34.7326C38.9034 34.7817 39.017 34.8071 39.1321 34.8072H44.8464C45.0278 34.8073 45.2036 34.7442 45.3437 34.6289C45.4838 34.5136 45.5794 34.3531 45.6142 34.1751L48.4249 19.7072H52.3321C53.9964 19.7072 54.4749 20.0393 54.6178 20.1822C54.7607 20.3251 54.975 20.7715 54.7071 22.2143L52.4392 33.8751C52.4177 33.9881 52.4214 34.1045 52.45 34.216C52.4786 34.3275 52.5315 34.4312 52.6048 34.5199C52.6781 34.6086 52.7701 34.68 52.8742 34.7291C52.9784 34.7781 53.092 34.8036 53.2071 34.8036H58.9928C59.1708 34.7967 59.3411 34.7292 59.4756 34.6123C59.61 34.4954 59.7005 34.3361 59.7321 34.1608ZM33.3214 24.0393C33.1467 25.5387 32.435 26.9241 31.3178 27.9393C29.9145 28.8122 28.269 29.2139 26.6214 29.0858H24.0785L25.9178 19.6179H29.2071C31.625 19.6179 32.5964 20.1358 32.9892 20.5679C33.2889 21.0894 33.4736 21.669 33.5309 22.2677C33.5882 22.8664 33.5167 23.4705 33.3214 24.0393Z" fill="white"/>
<path d="M84.093 16.7749C83.0717 15.752 81.8396 14.9643 80.4826 14.4665C79.1256 13.9687 77.6763 13.7729 76.2359 13.8927H65.1966C65.0151 13.8927 64.8393 13.9557 64.6992 14.071C64.5591 14.1863 64.4635 14.3468 64.4287 14.5249L59.3073 40.882C59.2857 40.9951 59.2894 41.1115 59.318 41.2229C59.3466 41.3344 59.3995 41.4382 59.4728 41.5269C59.5462 41.6156 59.6382 41.687 59.7423 41.736C59.8464 41.7851 59.9601 41.8105 60.0751 41.8106H65.818C65.9994 41.8106 66.1753 41.7476 66.3153 41.6323C66.4554 41.517 66.5511 41.3565 66.5859 41.1784L67.8251 34.8034H72.1109C74.0031 34.854 75.8919 34.6131 77.7109 34.0892C79.2446 33.5817 80.6471 32.7414 81.818 31.6284C83.8232 29.8213 85.1744 27.4015 85.6609 24.7463C86.0451 23.3879 86.1034 21.9581 85.8309 20.5729C85.5585 19.1878 84.9631 17.8865 84.093 16.7749ZM78.1394 24.0392C77.9647 25.5385 77.253 26.924 76.1359 27.9392C74.7291 28.813 73.0795 29.2135 71.4287 29.082H68.893L70.7323 19.6142H74.0216C76.4394 19.6142 77.4109 20.132 77.8037 20.5641C78.1045 21.0858 78.2901 21.6659 78.348 22.2653C78.4059 22.8647 78.3348 23.4695 78.1394 24.0392Z" fill="white"/>
<path d="M29.2071 18.8321C29.9776 18.7351 30.7598 18.7918 31.5083 18.999C32.2568 19.2062 32.9568 19.5598 33.5678 20.0393C33.962 20.6462 34.2135 21.3348 34.3032 22.053C34.3929 22.7712 34.3185 23.5004 34.0856 24.1857C33.8815 25.8731 33.0657 27.4271 31.7928 28.5535C30.2575 29.5424 28.4428 30.0061 26.6213 29.875H23.1285L25.2713 18.8428L29.2071 18.8321ZM15.2178 41.0321H20.9606L22.3213 34.025H27.2392C29.0494 34.0744 30.8563 33.8443 32.5963 33.3428C34.0244 32.8713 35.3297 32.0881 36.4178 31.05C38.3012 29.3557 39.5697 27.0849 40.0249 24.5928C40.3853 23.3536 40.4486 22.0468 40.2097 20.7785C39.9709 19.5102 39.4365 18.3161 38.6499 17.2928C37.7015 16.3547 36.5599 15.6348 35.3046 15.1833C34.0494 14.7318 32.7107 14.5595 31.3821 14.6785H20.3571L15.2178 41.0321Z" fill="#000004"/>
<path d="M44.2393 7.66785H49.9535L48.5714 14.675H53.6464C55.9773 14.431 58.319 15.0234 60.2535 16.3464C60.8938 17.0742 61.3315 17.9575 61.5227 18.9078C61.7139 19.8581 61.6519 20.8419 61.3428 21.7607L58.9607 34.025H53.1785L55.4464 22.3643C55.6044 21.9192 55.6607 21.4444 55.6112 20.9747C55.5618 20.5051 55.4078 20.0524 55.1607 19.65C54.3337 19.0575 53.3121 18.8021 52.3035 18.9357H47.75L44.8143 34.0357H39.1L44.2393 7.66785Z" fill="#000004"/>
<path d="M74.0248 18.8321C74.7954 18.7351 75.5775 18.7918 76.326 18.999C77.0745 19.2062 77.7745 19.5598 78.3855 20.0393C78.7798 20.6462 79.0312 21.3348 79.1209 22.053C79.2106 22.7712 79.1362 23.5004 78.9034 24.1857C78.6992 25.8731 77.8835 27.4271 76.6105 28.5535C75.0723 29.5446 73.2534 30.0085 71.4284 29.875H67.9355L70.0784 18.8428L74.0248 18.8321ZM60.0355 41.0321H65.7784L67.1391 34.025H72.057C73.8671 34.0744 75.6741 33.8443 77.4141 33.3428C78.8421 32.8713 80.1474 32.0881 81.2355 31.05C83.1189 29.3557 84.3875 27.0849 84.8427 24.5928C85.2031 23.3536 85.2664 22.0468 85.0275 20.7785C84.7886 19.5102 84.2542 18.3161 83.4677 17.2928C82.5193 16.3547 81.3776 15.6348 80.1224 15.1833C78.8671 14.7318 77.5285 14.5595 76.1998 14.6785H65.157L60.0355 41.0321Z" fill="#000004"/>
<defs>
<radialGradient id="paint0_radial_7_2544" cx="0" cy="0" r="1" gradientUnits="userSpaceOnUse" gradientTransform="translate(30.0214 9.25) scale(65.6571 65.6571)">
<stop stop-color="white"/>
<stop offset="0.5" stop-color="#4C6B96"/>
<stop offset="1" stop-color="#231F20"/>
</radialGradient>
</defs>
</svg>
