<svg width="97" height="100" viewBox="0 0 97 100" fill="none" xmlns="http://www.w3.org/2000/svg">
<path d="M96.7383 59.9021C96.1554 58.1367 94.6283 56.9069 92.6532 56.6116C91.722 56.4726 90.6554 56.5319 89.3935 56.7921C87.1938 57.2459 85.5618 57.4186 84.3708 57.4523C88.8662 49.862 92.5218 41.2062 94.6263 33.0584C98.029 19.8839 96.2107 13.882 94.0858 11.167C88.4623 3.98157 80.2576 0.121185 70.359 0.00284924C65.079 -0.0615952 60.4433 0.980968 58.0254 1.7305C55.7739 1.3335 53.3528 1.11165 50.8126 1.07056C46.0515 0.994665 41.8445 2.03251 38.2497 4.16569C36.2591 3.49296 33.0654 2.54425 29.3768 1.93865C20.7013 0.514363 13.7094 1.62429 8.59515 5.23722C2.40219 9.61181 -0.46884 17.2122 0.0622089 27.8276C0.230618 31.198 2.11612 41.4523 5.08461 51.1776C6.79071 56.7672 8.60997 61.4092 10.4919 64.9754C13.1606 70.0324 16.0161 73.0106 19.222 74.0799C21.019 74.6787 24.2837 75.0977 27.7176 72.2384C28.1528 72.7651 28.7333 73.289 29.5041 73.7754C30.4827 74.3926 31.6795 74.897 32.8745 75.1958C37.182 76.2728 41.2166 76.0033 44.6587 74.4941C44.6798 75.1062 44.6962 75.6912 44.7101 76.1962C44.733 77.0156 44.7555 77.8188 44.7855 78.5699C44.9894 83.6495 45.335 87.599 46.3589 90.3623C46.4151 90.5145 46.4907 90.746 46.5707 90.9915C47.0813 92.5557 47.9357 95.1739 50.1086 97.2246C52.3592 99.3486 55.0812 100 57.5741 100C58.8243 100 60.0173 99.8361 61.0635 99.6118C64.7934 98.8126 69.0292 97.5947 72.0934 93.2318C74.9902 89.1071 76.3986 82.8948 76.6535 73.106C76.6865 72.8294 76.717 72.5651 76.7464 72.3131C76.7662 72.1432 76.7864 71.9694 76.8068 71.796L77.4894 71.856L77.6653 71.8679C81.4641 72.041 86.109 71.2353 88.9617 69.9103C91.2159 68.8641 98.439 65.0509 96.7383 59.9021Z" fill="black"/>
<path d="M90.243 60.9035C78.9479 63.2334 78.1714 59.4092 78.1714 59.4092C90.0972 41.7132 95.0826 19.2508 90.7803 13.7533C79.0433 -1.24297 58.726 5.84929 58.387 6.03342L58.2778 6.05295C56.0463 5.58972 53.5489 5.31375 50.7421 5.26794C45.6312 5.18419 41.7545 6.6078 38.8127 8.83866C38.8127 8.83866 2.56863 -6.09247 4.25429 27.6174C4.61289 34.7889 14.5331 81.8803 26.3655 67.6565C30.6902 62.4553 34.8688 58.0576 34.8688 58.0576C36.9443 59.4363 39.4289 60.1396 42.0336 59.887L42.2359 59.7152C42.173 60.361 42.2018 60.9926 42.317 61.7404C39.2687 65.1461 40.1645 65.744 34.071 66.9983C27.9052 68.269 31.5273 70.5313 33.8922 71.1225C36.7592 71.8395 43.3921 72.8551 47.8738 66.5813L47.695 67.2972C48.8894 68.2538 49.7281 73.5196 49.5875 78.293C49.4469 83.0666 49.3531 86.3438 50.2941 88.9036C51.2352 91.4634 52.1731 97.223 60.1836 95.5066C66.877 94.0722 70.3456 90.3551 70.8281 84.1547C71.1706 79.7467 71.9455 80.3983 71.9944 76.4573L72.616 74.5915C73.3327 68.6162 72.7298 66.6885 76.8536 67.5851L77.8557 67.6731C80.8909 67.8112 84.8633 67.1849 87.1948 66.1013C92.2152 63.7714 95.1926 59.8814 90.2425 60.9035H90.243Z" fill="#336791"/>
<path d="M40.934 30.8245C39.9163 30.6829 38.9943 30.814 38.528 31.167C38.2655 31.3657 38.1844 31.5959 38.1626 31.7544C38.104 32.1741 38.3982 32.638 38.5787 32.8773C39.0898 33.5548 39.8366 34.0205 40.5758 34.1231C40.6829 34.1379 40.7894 34.1451 40.8953 34.1451C42.1281 34.1451 43.2486 33.1854 43.3474 32.477C43.4709 31.5898 42.1829 30.9983 40.934 30.8245Z" fill="white"/>
<path d="M74.6541 30.8526C74.5571 30.1572 73.3192 29.9589 72.1448 30.1222C70.9722 30.2856 69.8349 30.8149 69.9299 31.5119C70.0062 32.0539 70.9846 32.9793 72.1432 32.9791C72.2409 32.9791 72.3397 32.9726 72.4392 32.9586C73.2125 32.8515 73.7799 32.3604 74.0494 32.0773C74.4601 31.6462 74.6974 31.1652 74.6541 30.8526Z" fill="white"/>
<path d="M94.0015 60.6388C93.5709 59.3364 92.1847 58.9172 89.8816 59.393C83.0433 60.8043 80.5944 59.8266 79.7901 59.2345C85.1055 51.1369 89.4781 41.3492 91.8369 32.2167C92.9545 27.8909 93.5717 23.8735 93.622 20.5992C93.6777 17.0047 93.0658 14.3638 91.8032 12.7505C86.713 6.24629 79.2426 2.75753 70.1995 2.66165C63.9828 2.59182 58.7302 4.18295 57.7119 4.63024C55.5675 4.09695 53.2297 3.76956 50.685 3.72779C46.0178 3.65235 41.9838 4.76968 38.6437 7.04702C37.1929 6.50721 33.4435 5.22012 28.8585 4.48159C20.9312 3.20505 14.632 4.17217 10.1366 7.35689C4.77266 11.1571 2.29638 17.95 2.77623 27.5466C2.93768 30.7756 4.77715 40.7079 7.68052 50.2201C11.5021 62.7396 15.6559 69.8272 20.0269 71.2849C20.5384 71.4556 21.1285 71.575 21.7788 71.575C23.3733 71.575 25.328 70.8562 27.3619 68.4112C30.7402 64.3469 33.8944 60.9412 35.0571 59.7038C36.7753 60.6262 38.6626 61.1411 40.5935 61.1927C40.5968 61.2432 40.602 61.2938 40.6065 61.3441C40.2191 61.8035 39.9014 62.2061 39.6306 62.5499C38.293 64.2479 38.0146 64.6013 33.7087 65.488C32.484 65.7407 29.2306 66.4112 29.1832 68.6914C29.1313 71.1827 33.0283 72.2291 33.4725 72.34C35.0198 72.7274 36.5103 72.9185 37.9319 72.9185C41.3895 72.9183 44.4318 71.782 46.8634 69.5835C46.7884 78.4654 47.1589 87.2175 48.2253 89.8842C49.0986 92.067 51.2324 97.4022 57.9726 97.4018C58.9613 97.4018 60.0501 97.2868 61.2476 97.0301C68.2817 95.5219 71.3362 92.413 72.5179 85.559C73.1503 81.896 74.2355 73.1486 74.7457 68.4568C75.8228 68.7927 77.2096 68.9465 78.7086 68.9463C81.8352 68.9463 85.4428 68.2821 87.7053 67.2319C90.2467 66.0517 94.8332 63.155 94.0015 60.6388ZM77.2502 28.933C77.2269 30.3182 77.0362 31.5757 76.8342 32.8884C76.6168 34.3001 76.3918 35.7596 76.3352 37.5315C76.2793 39.2558 76.4946 41.0486 76.703 42.782C77.1238 46.2836 77.5556 49.8887 75.8839 53.4459C75.6241 52.9845 75.3733 52.481 75.1433 51.9235C74.9356 51.4198 74.4845 50.6108 73.86 49.491C71.4296 45.1326 65.7383 34.9261 68.6517 30.7612C69.5194 29.5213 71.7217 28.247 77.2502 28.933ZM70.5491 5.46667C78.6516 5.64563 85.0608 8.67677 89.5989 14.4754C93.0793 18.9232 89.2468 39.1615 78.1518 56.621C78.0422 56.4818 77.9306 56.3412 77.8152 56.197C77.7692 56.1393 77.7222 56.0807 77.6749 56.0214C80.5418 51.2865 79.9811 46.6018 79.4822 42.4481C79.2772 40.7436 79.0836 39.1336 79.1328 37.6215C79.1838 36.0183 79.3958 34.6439 79.6005 33.3145C79.8527 31.6763 80.1089 29.9814 80.0382 27.9832C80.091 27.7737 80.1123 27.526 80.0847 27.2321C79.9041 25.3158 77.7166 19.5816 73.2576 14.3908C70.8188 11.5521 67.2618 8.37498 62.4053 6.23215C64.4943 5.79922 67.3509 5.39549 70.5491 5.46667ZM25.2096 66.6216C22.9689 69.3156 21.4213 68.7994 20.9125 68.6299C17.5967 67.5238 13.7495 60.5159 10.3575 49.403C7.42252 39.7873 5.70722 30.1181 5.57159 27.4068C5.14294 18.8318 7.22155 12.8556 11.75 9.64411C19.1195 4.41782 31.236 7.54596 36.1046 9.1326C36.0345 9.20153 35.9618 9.2662 35.8924 9.33626C27.9033 17.4048 28.0928 31.1901 28.1123 32.0326C28.1117 32.3578 28.1388 32.8181 28.1763 33.4513C28.3138 35.7697 28.5695 40.085 27.8862 44.972C27.251 49.5132 28.6508 53.9581 31.7262 57.1669C32.0446 57.499 32.3769 57.8108 32.7202 58.1043C31.3512 59.5704 28.3762 62.8121 25.2096 66.6216ZM33.7471 55.2301C31.2683 52.6441 30.1427 49.0466 30.6582 45.3596C31.3799 40.1971 31.1134 35.701 30.9703 33.2856C30.9504 32.9476 30.9326 32.6515 30.9221 32.4177C32.0893 31.383 37.4979 28.4848 41.3549 29.3686C43.1153 29.7719 44.1875 30.9703 44.6335 33.0321C46.9413 43.7054 44.9391 48.1541 43.3302 51.7288C42.9986 52.4653 42.6853 53.1614 42.4177 53.8818L42.2104 54.4384C41.6854 55.8461 41.197 57.1547 40.8943 58.3976C38.2595 58.3895 35.6961 57.2641 33.7471 55.2301ZM34.1515 69.6246C33.3822 69.4324 32.6901 69.0985 32.2842 68.8216C32.6232 68.662 33.2268 68.4451 34.2734 68.2295C39.3389 67.1865 40.121 66.4507 41.8294 64.2816C42.2212 63.7844 42.6651 63.2206 43.2799 62.5339C43.2801 62.5335 43.2804 62.5333 43.2806 62.533C44.1965 61.5078 44.6153 61.6816 45.3749 61.9966C45.9906 62.2515 46.5902 63.023 46.8333 63.8722C46.9483 64.2733 47.0776 65.0347 46.6548 65.6268C43.0861 70.6234 37.8861 70.5592 34.1515 69.6246ZM60.6608 94.2934C54.4641 95.6211 52.27 92.4593 50.8242 88.8448C49.891 86.5111 49.4325 75.9882 49.7578 64.3678C49.7621 64.2131 49.7401 64.0638 49.6974 63.9234C49.6604 63.6524 49.6033 63.3782 49.5243 63.1023C49.0402 61.4114 47.8611 59.997 46.4464 59.4107C45.8844 59.1779 44.8526 58.7506 43.6129 59.0676C43.8774 57.9784 44.3359 56.7485 44.8329 55.4165L45.0415 54.8561C45.2763 54.2244 45.5707 53.5701 45.8824 52.8776C47.566 49.1371 49.8719 44.0141 47.3693 32.4404C46.4319 28.1055 43.3017 25.9888 38.5564 26.4803C35.7114 26.7747 33.1089 27.9225 31.8108 28.5807C31.5317 28.7221 31.2764 28.8587 31.0379 28.9918C31.4001 24.624 32.7692 16.4615 37.8897 11.2972C41.1135 8.0458 45.4073 6.44007 50.6387 6.52652C60.9465 6.69538 67.5564 11.9852 71.2868 16.3933C74.5011 20.1919 76.2418 24.0181 76.9365 26.0817C71.7125 25.5507 68.1595 26.582 66.3582 29.1569C62.4399 34.7579 68.5019 45.6295 71.4154 50.8542C71.9496 51.8119 72.4108 52.6394 72.5559 52.991C73.5046 55.2903 74.7329 56.8253 75.6297 57.946C75.9045 58.2894 76.1713 58.6224 76.3741 58.9131C74.7919 59.3694 71.9498 60.4232 72.2087 65.6913C71.9999 68.3348 70.5143 80.7109 69.7599 85.0834C68.7638 90.8601 66.638 93.0119 60.6608 94.2934ZM86.5266 64.6932C84.9088 65.4443 82.2012 66.0076 79.6291 66.1284C76.7881 66.2616 75.342 65.8103 75.0019 65.5327C74.842 62.2499 76.0642 61.9068 77.3573 61.5437C77.5606 61.4864 77.7588 61.431 77.9501 61.364C78.0691 61.4608 78.1994 61.5569 78.342 61.651C80.6254 63.1582 84.6982 63.3207 90.4476 62.134C90.4688 62.1295 90.4899 62.1255 90.5107 62.1212C89.7354 62.8463 88.4083 63.8195 86.5266 64.6932Z" fill="white"/>
</svg>
