<svg width="113" height="100" viewBox="0 0 113 100" fill="none" xmlns="http://www.w3.org/2000/svg">
<path d="M56.1908 59.9335C61.7324 59.9335 66.2248 55.4411 66.2248 49.8994C66.2248 44.3578 61.7324 39.8654 56.1908 39.8654C50.6491 39.8654 46.1567 44.3578 46.1567 49.8994C46.1567 55.4411 50.6491 59.9335 56.1908 59.9335Z" fill="#00D8FF"/>
<path d="M56.1907 72.9055C44.1303 73.1972 32.1001 71.5715 20.5497 68.0892C15.2141 66.3978 10.2377 63.7333 5.87193 60.2305C4.20599 59.0339 2.81865 57.491 1.80509 55.7077C0.791537 53.9245 0.175755 51.9431 0 49.8994C0 43.2649 7.28874 36.7628 19.4982 32.5084C31.3574 28.7386 43.7482 26.9116 56.1907 27.098C68.4672 26.9265 80.692 28.7205 92.4016 32.4121C97.5402 34.0503 102.348 36.5859 106.602 39.9015C108.239 41.0423 109.606 42.5293 110.605 44.2571C111.603 45.9848 112.21 47.9111 112.381 49.8994C112.381 56.7948 104.234 63.7825 91.1092 68.1253C79.7825 71.4942 68.0061 73.1063 56.1907 72.9055ZM56.1907 31.8983C44.2868 31.7392 32.4334 33.4761 21.0755 37.0438C9.83739 40.9651 4.80029 46.3273 4.80029 49.8874C4.80029 53.612 10.2147 59.4679 22.103 63.5337C33.1528 66.8484 44.658 68.3913 56.1907 68.1052C67.4947 68.3074 78.763 66.7779 89.6041 63.5698C101.946 59.4799 107.565 53.616 107.565 49.8994C107.363 48.624 106.898 47.4044 106.2 46.3178C105.502 45.2311 104.587 44.3009 103.511 43.586C99.7054 40.6446 95.4106 38.3973 90.8242 36.9475C79.6223 33.4306 67.9305 31.726 56.1907 31.8983Z" fill="#00D8FF"/>
<path d="M33.3938 99.9451C31.5215 99.988 29.6712 99.5338 28.0316 98.6286C22.2841 95.3134 20.2933 85.7529 22.7055 73.0498C25.3651 60.8929 29.9734 49.2462 36.3518 38.5607C42.3351 27.8408 49.9949 18.1471 59.0408 9.8473C63.027 6.21379 67.6255 3.3153 72.6229 1.28624C74.4305 0.439124 76.4023 0 78.3986 0C80.3948 0 82.3666 0.439124 84.1742 1.28624C90.1504 4.72993 92.1292 15.2777 89.3397 28.8157C86.5979 40.3129 82.1094 51.3218 76.0305 61.4585C70.2579 72.0518 62.8392 81.6611 54.0519 89.9271C49.921 93.703 45.127 96.6818 39.9119 98.7129C37.8241 99.4878 35.6204 99.9044 33.3938 99.9451ZM40.51 40.9448C34.4257 51.1769 30.009 62.3122 27.4256 73.9328C25.206 85.6325 27.3373 92.6684 30.4358 94.4585C33.6467 96.3168 41.4411 94.5548 50.9052 86.2867C59.2938 78.3677 66.3747 69.1694 71.8844 59.0342C77.708 49.3434 82.0136 38.8182 84.6518 27.8243C87.2767 15.0811 85.009 7.27858 81.7901 5.42429C80.5836 4.96202 79.2944 4.75509 78.0039 4.81658C76.7134 4.87807 75.4496 5.20663 74.2926 5.7815C69.8442 7.61712 65.7546 10.2231 62.2116 13.4796C53.569 21.4298 46.2522 30.7098 40.5381 40.9689L40.51 40.9448Z" fill="#00D8FF"/>
<path d="M78.9762 99.9973C73.5377 99.9973 66.6303 96.7061 59.4379 90.5211C50.2334 82.1458 42.4441 72.337 36.3716 61.4746C30.0732 50.9362 25.5014 39.458 22.8296 27.4752C21.6709 22.2032 21.4562 16.7676 22.1955 11.4207C22.3664 9.43717 22.9704 7.51531 23.9648 5.79062C24.9593 4.06593 26.32 2.5804 27.951 1.4388C33.9193 -2.01693 44.0456 1.53513 54.3807 10.7103C62.9723 18.8266 70.2682 28.2125 76.0141 38.5407C82.3087 48.833 86.9284 60.0599 89.7006 71.8016C90.9092 77.267 91.0956 82.9088 90.2505 88.4421C90.0494 90.4826 89.4094 92.4556 88.3744 94.2256C87.3394 95.9957 85.9338 97.521 84.2541 98.6969C82.6413 99.5908 80.8197 100.04 78.9762 99.9973ZM40.5257 59.0584C46.3512 69.4393 53.7919 78.8269 62.5685 86.8687C71.5952 94.6351 78.7555 96.3048 81.8339 94.4946C85.0448 92.6283 87.4128 85.0104 84.9725 72.6846C82.299 61.4743 77.868 50.7578 71.844 40.9328C66.3607 31.0478 59.3967 22.0602 51.1939 14.2824C41.4649 5.64507 33.5741 3.71452 30.3592 5.57684C29.3572 6.39113 28.5349 7.40434 27.9442 8.55249C27.3536 9.70064 27.0074 10.9588 26.9276 12.2475C26.2894 17.016 26.4973 21.8597 27.5416 26.556C30.1116 38.0155 34.4962 48.9906 40.5297 59.0664L40.5257 59.0584Z" fill="#00D8FF"/>
</svg>
