<svg width="100" height="100" viewBox="0 0 100 100" fill="none" xmlns="http://www.w3.org/2000/svg">
<path fill-rule="evenodd" clip-rule="evenodd" d="M17.0813 87.4781C17.9512 88.1754 19.0596 88.504 20.169 88.3937C21.2784 88.2833 22.3004 87.7427 23.0159 86.8878C23.7314 86.0328 24.0835 84.9316 23.9966 83.8201C23.9098 82.7086 23.3909 81.6754 22.5513 80.942C21.7117 80.2085 20.6182 79.8332 19.5051 79.8965C18.3921 79.9598 17.3481 80.4566 16.597 81.2805C15.846 82.1044 15.4476 83.1897 15.4873 84.3039C15.527 85.418 16.0016 86.4723 16.8094 87.2406L15.9781 86.5094C6.1625 77.3813 0 64.3656 0 49.9313C0 22.4 22.4 0 49.9375 0C63.9375 0 76.5938 5.80312 85.6719 15.1125C87.808 12.1923 89.5913 9.02974 90.9844 5.69063C97.3469 24.8094 101.088 40.8781 99.7188 53.5344C97.8688 79.3906 76.2563 99.8781 49.9375 99.8781C38.1816 99.8859 26.8036 95.726 17.825 88.1375L17.0813 87.4781ZM90.7688 71.9094C103.3 55.2344 96.3156 28.2688 90.5031 11.0344C85.325 21.825 72.5719 30.0781 61.5594 32.6906C51.2375 35.1531 42.1031 33.1344 32.55 36.8094C10.7688 45.1844 11.1125 71.1594 23.1125 76.9969C23.1188 76.9969 23.8313 77.3844 23.8219 77.3719C23.8219 77.3656 41.4594 73.8656 51.2094 70.2656C65.4594 65.0031 81.1031 52.0313 86.25 36.9625C83.5094 52.6344 70.0563 67.7125 56.5406 74.6375C49.3469 78.3313 43.7531 79.1531 31.9156 83.25C30.4656 83.7438 29.3281 84.2313 29.3281 84.2313C32.3281 83.7313 35.3188 83.5688 35.3188 83.5688C52.1719 82.7719 78.4656 88.3063 90.7719 71.9125L90.7688 71.9094Z" fill="#70AD51"/>
</svg>
