<svg width="92" height="100" viewBox="0 0 92 100" fill="none" xmlns="http://www.w3.org/2000/svg">
<path d="M48.2617 89.4994H48.2867C48.3492 89.6577 45.8911 96.4574 44.9953 98.6156C44.7911 99.0991 44.7203 99.2197 44.6119 99.2114C42.6182 98.9596 40.628 98.6817 38.6414 98.3779C34.8666 97.8029 28.5462 96.6988 26.9505 96.3363L26.5798 96.253L28.8421 95.7446C33.6918 94.6531 36.0208 94.0656 38.3832 93.3407C41.9134 92.248 44.8643 91.0829 47.7078 89.7289L47.2911 89.9076C47.5459 89.7786 47.8662 89.6409 48.1952 89.5208L48.2619 89.4996L48.2617 89.4994ZM29.4174 85.079C29.4383 85.0998 28.3633 86.8206 26.4759 89.7954C25.6757 91.0495 24.7718 92.4828 24.4635 92.9703C24.1511 93.4621 23.6966 94.2119 23.4553 94.6369L23.0096 95.4077L22.7846 95.3493C22.243 95.2035 18.4141 93.8495 17.4057 93.4495C15.9749 92.8828 14.8147 92.3385 13.6908 91.7356L13.8811 91.8288C12.8858 91.3307 12.0294 90.7808 11.2386 90.1518L11.2688 90.1752L15.873 88.9168C22.5057 87.1086 26.1764 86.0712 28.5805 85.3171C29.0347 85.1795 29.4096 85.0712 29.414 85.0795L29.4174 85.079ZM32.0922 85.004C32.1047 84.9915 32.7797 85.229 33.6005 85.5374C35.0914 86.1303 36.9635 86.7273 38.8815 87.2086L39.2126 87.2791C41.5898 87.8943 44.4775 88.4137 47.4261 88.7298L47.7038 88.754C48.0372 88.779 48.2122 88.8207 48.1622 88.854C48.058 88.9207 45.8289 89.6623 44.1915 90.1789C37.7708 92.132 31.3323 94.0249 24.876 95.8577C24.8647 95.8581 24.8516 95.8583 24.8385 95.8583C24.6111 95.8583 24.3984 95.7962 24.2162 95.688L24.2219 95.6911C24.4896 95.3066 24.7538 94.9726 25.0358 94.6549L25.0259 94.6664C27.0712 92.2332 29.0935 89.5381 30.9654 86.7344L31.1754 86.3999C31.4792 85.9335 31.7846 85.4682 32.0917 85.0041L32.0922 85.004ZM20.0095 76.3672L20.4969 76.9129C22.5135 79.1946 24.8586 81.1258 27.4707 82.6488L27.6047 82.7206C27.9142 82.8759 28.1809 83.0535 28.423 83.2591L28.4172 83.2542C22.4211 85.4281 16.4076 87.5531 10.3766 89.6291C10.2733 89.5675 10.1733 89.5008 10.0766 89.429L9.79733 89.229L10.2349 88.5955C11.6515 86.5417 13.4346 84.2833 17.3386 79.5877L20.0095 76.3672ZM18.072 75.6254C18.1095 75.6629 16.1806 78.4211 13.489 82.1917L11.0433 85.6206C10.6391 86.1999 10.0226 87.1123 9.67262 87.6539L9.03529 88.6371L8.36034 88.0663C7.34448 87.1721 6.4224 86.2326 5.57189 85.2303L5.53959 85.1914C4.38464 83.8281 3.51059 82.1879 3.03048 80.387L3.01069 80.3002C2.85252 79.5752 2.84398 79.2086 2.99818 79.1628C5.68074 78.5157 8.36677 77.8838 11.0563 77.267L16.4725 75.9963C17.3431 75.7877 18.0639 75.621 18.0722 75.6254H18.072ZM52.5992 74.4463L52.6075 74.4588C52.6075 74.7922 51.845 77.9085 51.2076 80.1667C50.6741 82.0538 50.2243 83.5331 49.3952 86.1539C49.1838 86.8608 48.9505 87.5608 48.695 88.2539C43.9669 87.4331 39.7693 86.2168 35.7768 84.5999L36.1958 84.75C35.2916 84.3961 34.4042 84.0031 33.5335 83.5709C34.0784 83.2638 34.7444 82.9424 35.4304 82.6593L35.5585 82.6124C42.4538 79.6084 49.5955 76.1836 52.0367 74.7127C52.1975 74.5975 52.3847 74.5064 52.5866 74.4491L52.5993 74.4462L52.5992 74.4463ZM37.6416 69.2258C37.5569 69.5071 37.4676 69.7405 37.3644 69.9661L37.3792 69.9299C35.5844 74.1528 33.8257 77.629 31.8742 80.9793L32.1253 80.5123C31.7922 81.1233 31.4422 81.7247 31.0754 82.3164C31.0546 82.3164 30.6005 82.0413 30.0589 81.7121C26.9895 79.8658 24.3749 77.6268 22.1811 75.022L22.1425 74.9751L21.8758 74.6417L23.259 74.2627C28.5014 72.8511 32.9212 71.2824 37.1837 69.4204L36.55 69.6672C37.1418 69.4171 37.6334 69.2131 37.6417 69.2256L37.6416 69.2258ZM40.0499 68.4342C40.3794 68.5915 40.6483 68.74 40.9082 68.9016L40.8707 68.8799C44.2098 70.7791 48.0746 72.3262 52.1561 73.3201L52.4659 73.3838L52.816 73.4672L52.3367 73.7295C50.3285 74.8461 43.7081 77.6002 36.946 80.1333C36.2325 80.4 35.52 80.6694 34.8087 80.9416C34.71 80.9912 34.5954 81.0302 34.4752 81.0529L34.4669 81.0541C34.4669 81.0374 34.7461 80.504 35.0879 79.8625C36.7583 76.8342 38.3668 73.2516 39.691 69.5341L39.8542 69.009C39.95 68.7047 40.0376 68.4464 40.0498 68.4339L40.0499 68.4342ZM16.4305 64.2053C16.493 64.2053 16.4764 64.322 16.3805 64.8761C16.298 65.4147 16.241 65.9564 16.2096 66.501C16.193 66.7296 16.1834 66.9962 16.1834 67.265C16.1834 69.2155 16.6872 71.0482 17.5718 72.6404L17.543 72.5839C17.8511 73.2087 18.0929 73.7254 18.0803 73.7337C17.9677 73.8296 7.95587 76.7586 4.80609 77.6213L2.9937 78.1214C2.88118 78.1547 2.87284 78.1297 2.91035 77.8713C3.68115 74.8701 5.22306 72.2985 7.31281 70.2937L7.31833 70.2885C8.73845 68.7903 10.3799 67.5206 12.1944 66.5279L12.2973 66.4763C13.6609 65.6938 15.0386 64.9367 16.4302 64.2052L16.4305 64.2053ZM53.9781 59.7345V60.3763C53.9312 64.8142 53.5468 69.1252 52.8487 73.3301L52.9157 72.8421C49.8905 71.9581 47.2678 70.8494 44.8086 69.4824L45.0076 69.5841C43.6355 68.8595 42.4774 68.1383 41.3735 67.3461L41.4662 67.4092C41.4787 67.3926 42.1077 67.0633 42.8577 66.6718C46.1399 64.9735 48.849 63.361 51.4596 61.6127L51.1406 61.8138C52.0655 61.197 53.453 60.193 53.7612 59.9222L53.9781 59.7345ZM27.8631 58.6723C27.3422 59.9417 26.8448 60.9707 26.2961 61.9672L26.3799 61.8012C24.9174 64.6593 23.3008 67.4717 21.1593 70.9048L20.401 72.1047C20.326 72.2172 20.2926 72.1797 20.0593 71.7129C19.5505 70.7005 19.1463 69.5255 18.9069 68.2917L18.8927 68.2049C18.8023 67.6043 18.7506 66.9113 18.7506 66.2063C18.7506 65.3177 18.8326 64.4484 18.9896 63.6054L18.9761 63.6926C19.172 62.7469 19.1636 62.7678 19.6096 62.5427C21.5343 61.5553 27.8006 58.6179 27.863 58.672L27.8631 58.6723ZM30.8961 57.4224L30.9378 57.4391C31.0205 57.5915 31.0993 57.7718 31.1636 57.959L31.1713 57.9848C31.8701 59.7029 32.7122 61.1855 33.7183 62.539L33.6795 62.4845C34.9389 64.1416 36.3312 65.5908 37.873 66.8657L37.9168 66.9008C38.0126 66.9841 38.0418 66.9675 35.5752 67.901C32.4175 69.0916 29.2316 70.2026 26.0175 71.2341C24.6551 71.6758 23.5009 72.0468 23.4551 72.0676C23.3176 72.1134 23.3593 72.0301 23.7594 71.4094C25.8427 68.0124 27.8481 64.0489 29.5351 59.9214L29.738 59.36C29.9964 58.6932 30.2465 58.0268 30.2921 57.8768C30.3244 57.6955 30.453 57.5502 30.6221 57.4946L30.6254 57.4935C30.7039 57.4515 30.7966 57.4255 30.8953 57.4225H30.8961V57.4224ZM40.7918 53.5225C40.8131 53.9807 40.8253 54.5178 40.8253 55.0577C40.8253 56.0659 40.7828 57.0644 40.6996 58.0511L40.7083 57.9222C40.353 60.7843 39.742 63.3722 38.885 65.8452L38.9663 65.5759C37.9468 64.713 37.0267 63.814 36.174 62.8538L36.1498 62.826C35.1033 61.6439 34.1775 60.3138 33.4163 58.8828L33.3624 58.7721C33.0567 58.1952 32.7713 57.5153 32.5457 56.8088L32.5207 56.7184C32.7541 56.5515 40.7332 53.4683 40.7914 53.5225H40.7918ZM42.8912 52.7184C43.3927 52.9065 43.8263 53.1482 44.2165 53.4443L44.2037 53.4349C46.715 55.0557 49.7164 56.754 52.8132 58.2891L53.3699 58.5388C53.9367 58.7888 53.9989 58.6888 52.703 59.5679C49.7288 61.5534 46.3117 63.4233 42.7317 64.9905L42.2993 65.1592C41.8444 65.3673 41.3847 65.5644 40.9203 65.7507C40.9546 65.4405 41.0177 65.1581 41.1078 64.888L41.0995 64.9172C42.0251 61.7538 42.6071 58.1046 42.7106 54.3358L42.7118 54.2761C42.7201 52.7679 42.7201 52.7596 42.866 52.722H42.891L42.8912 52.7184ZM53.0907 49.3728C53.5262 51.6109 53.8126 54.2234 53.8851 56.8895L53.8865 56.9556C53.9035 57.0915 53.9131 57.2487 53.9131 57.4081C53.9131 57.6116 53.8975 57.8113 53.8671 58.0064L53.87 57.9847C53.7533 57.9847 51.3076 56.5473 49.5702 55.4599C47.9307 54.427 46.317 53.3549 44.7291 52.2435C44.5833 52.1268 44.5999 52.1226 45.8374 51.6975C47.9414 50.9727 52.9369 49.3727 53.0953 49.3727L53.0907 49.3728ZM57.6738 46.6855L37.6416 53.2182L20.2262 60.9093L15.3516 62.201C14.11 63.3759 12.7934 64.5703 11.4018 65.7841C9.86027 67.1215 8.41879 68.3339 7.31875 69.2088C5.86425 70.4174 4.56469 71.7063 3.38588 73.1003L3.34805 73.1462C2.15091 74.5649 1.1611 76.2094 0.456354 77.9975L0.41499 78.1165C0.15191 78.8899 0 79.7807 0 80.707C0 82.5503 0.601178 84.2532 1.61828 85.6304L1.60224 85.6075C4.44455 89.2038 8.1281 92.0135 12.3624 93.7593L12.5388 93.8237C15.1644 94.9622 18.3686 96.0648 21.6663 96.9369L22.1633 97.0484C28.1173 98.4659 35.1412 99.5046 42.3264 99.9473L42.6869 99.9652C43.0622 99.9874 43.501 100 43.9428 100C44.4346 100 44.9228 99.9844 45.4069 99.9534L45.3408 99.9565C45.9666 98.9449 46.62 97.729 47.2045 96.4745L47.299 96.2486C50.0853 90.8901 52.5106 84.6447 54.2468 78.1187L54.3946 77.4664C55.2515 73.7124 55.8949 69.2558 56.1895 64.7041L56.2028 64.4464C56.3153 62.9715 56.357 58.0593 56.2695 56.3885C56.1532 53.7794 55.8804 51.3337 55.4571 48.9401L55.5071 49.2806C55.4702 49.1441 55.4491 48.9875 55.4491 48.8259C55.4491 48.766 55.4519 48.7068 55.4576 48.6482L55.457 48.6555C55.5153 48.6138 55.7029 48.5513 58.1651 47.8348L57.6738 46.6855ZM39.7207 11.6541C39.7832 11.6583 39.8541 11.7875 40.0414 12.1999C40.5582 13.3335 42.1663 16.3996 42.5537 16.9913C42.6788 17.1872 42.8872 17.1997 40.7497 16.8538C35.625 16.029 33.9627 15.75 33.9627 15.7166C34.0625 15.6295 34.1763 15.5543 34.2993 15.4955L34.3084 15.4917C36.0571 14.5021 37.5661 13.4447 38.964 12.2601L38.9207 12.296L39.6499 11.6835L39.7207 11.6541ZM21.5885 8.03332L23.7174 10.6914C24.8923 12.1497 26.0673 13.6038 26.3256 13.9161C26.4836 14.0903 26.6319 14.2808 26.7646 14.4821L26.7755 14.4996C26.7173 14.5454 23.6925 13.9578 22.0884 13.5871C20.9595 13.347 19.8443 13.0526 18.7428 12.7039L17.9093 12.4371L17.9135 12.2331C17.926 11.2124 19.2132 9.70412 21.3965 8.16658L21.5885 8.03332ZM22.1842 7.55822L22.7716 7.75826C27.2837 9.10159 32.6253 10.1588 38.1126 10.7256L38.4999 10.7581C39 10.7998 39.4248 10.8456 39.4373 10.8581C39.1779 11.0201 38.8667 11.1895 38.5454 11.3416L38.4874 11.3664C36.3417 12.4413 33.9751 13.7536 32.3378 14.7786C32.0558 14.9755 31.734 15.1553 31.3946 15.3023L31.3587 15.3161C31.1218 15.2828 30.8857 15.2453 30.6504 15.2036L30.0503 15.1077L28.5295 13.6287C25.8588 11.0455 23.7756 9.04564 22.9674 8.29568L22.1842 7.55822ZM36.775 0.775629H36.7959C36.8084 0.788132 36.8667 1.21323 36.9292 1.71313C37.2322 4.09837 37.7492 6.25292 38.4723 8.31047L38.4041 8.08792C38.9623 9.75455 38.9709 9.65869 38.304 9.47115C36.7624 9.04168 29.8378 7.85443 24.8296 7.15865C24.3324 7.09509 23.8366 7.02146 23.3422 6.93776C23.2797 6.87525 26.9545 4.95054 28.5833 4.18786C30.6708 3.22129 36.3621 0.854814 36.7747 0.775629H36.775ZM37.0293 0.000661185C36.6959 -0.041015 31.317 1.89641 27.863 3.2962C23.8118 4.84479 20.3332 6.62717 17.0819 8.7314L17.3053 8.59595C16.4983 9.1492 15.8225 9.8278 15.2889 10.611L15.2719 10.6375C15.2165 10.7869 15.1844 10.9594 15.1844 11.1397V11.1505V11.15L17.2177 13.0666L22.0423 14.6082L33.5374 16.6664L46.6747 18.9247L46.8081 17.7997L46.6914 17.7789L44.962 17.5038L44.6076 16.8872C42.8219 13.737 41.1873 10.508 39.7037 7.20032C38.9619 5.56516 38.2107 3.53949 37.5887 1.45808L37.4959 1.09654C37.2125 0.0840132 37.1834 0.0214993 37.0292 0.000661185H37.0293ZM32.8669 47.752C31.9515 48.9277 31.0227 49.9743 30.0315 50.9581L30.0294 50.9602C27.2659 53.7977 24.1847 56.3029 20.8365 58.4249L20.63 58.5471C20.1799 58.8347 19.7718 59.0889 19.7134 59.122C19.6176 59.1804 19.7468 59.0304 21.3218 57.3138C22.3134 56.2346 23.0718 55.3389 23.9384 54.2181C24.3424 53.6383 24.8448 53.1572 25.4256 52.789L25.4467 52.7765C27.684 51.1599 32.8088 47.6893 32.8672 47.7477L32.8669 47.752ZM35.2168 47.1687C35.2876 47.1562 35.3835 47.2854 35.7958 47.8978C36.6355 49.1523 37.233 50.6406 37.4836 52.244L37.4915 52.3059L37.5248 52.6101L35.454 53.4103C31.7459 54.8518 28.3253 56.2724 26.0129 57.3266C25.3671 57.6267 24.2297 58.1682 23.4839 58.5432C22.7381 58.9181 22.1298 59.21 22.1298 59.1933C22.1298 59.1766 22.5966 58.8224 23.1714 58.4098C27.4734 55.3258 31.2108 51.8701 34.4795 48.0053L34.5541 47.9147C34.8665 47.5315 35.1543 47.1982 35.1914 47.1732L35.2165 47.1648L35.2168 47.1687ZM30.1211 43.1688C31.4104 43.7933 32.5217 44.5129 33.532 45.3495L33.5043 45.3271C33.2472 45.5957 32.9604 45.8322 32.6479 46.0325L32.6294 46.0438C31.192 47.0813 29.0046 48.7271 27.7421 49.7352C26.4089 50.798 26.3634 50.8313 26.5131 50.5979C27.2065 49.5995 27.8803 48.4529 28.4677 47.2565L28.5381 47.0982C28.9544 46.2511 29.383 45.204 29.7473 44.1271L29.8046 43.9318C29.8798 43.6426 29.9897 43.3888 30.1324 43.1573L30.1254 43.1694L30.1211 43.1688ZM49.245 38.4817C49.2825 38.5192 47.1951 41.4399 45.9575 43.0899C44.4743 45.0606 41.8326 48.3603 40.0162 50.5061C39.5523 51.0718 39.0718 51.623 38.5746 52.1598C38.5329 52.1723 38.5121 51.9515 38.5079 51.6057C38.4905 49.6192 38.0187 47.747 37.1915 46.0823L37.2246 46.1561C36.8789 45.4559 36.8206 45.2892 36.8912 45.2225C37.1746 44.9641 41.5869 42.4477 44.3658 40.9603C46.2786 39.9359 49.2117 38.4443 49.2451 38.4818L49.245 38.4817ZM52.4071 37.6902L53.1448 38.1692C55.1365 39.4808 56.8412 40.7469 58.4726 42.0987L58.3736 42.019C59.2318 42.7356 60.8942 44.2272 61.2359 44.5855L61.4193 44.7814L60.1943 45.1231C53.9311 46.8314 47.7509 48.809 41.6536 51.056C40.958 51.3103 40.3621 51.5228 40.32 51.5228C40.2325 51.5228 40.1452 51.602 41.7075 50.1646C45.4963 46.7096 48.8438 42.8832 51.7285 38.7122L51.8739 38.4898L52.4071 37.6902ZM40.3747 32.7404C40.1215 33.9214 39.8489 34.8986 39.5256 35.8524L39.5831 35.6569C38.6061 38.5422 37.4295 41.0315 36.0097 43.3557L36.1042 43.1894L35.7291 43.8018L34.8834 42.9813C34.0787 42.1616 33.1503 41.4671 32.1275 40.9273L32.0669 40.8981C31.7863 40.7702 31.5454 40.6282 31.3214 40.4647L31.3334 40.473C31.3334 40.348 33.9166 38.0024 35.9078 36.3151C37.3375 35.1068 40.3415 32.7028 40.3748 32.7403L40.3747 32.7404ZM42.3536 32.3903C42.5662 32.432 44.5326 33.3487 46.0159 34.0903C47.3698 34.7694 49.424 35.8653 49.5282 35.961C49.5407 35.9735 48.8199 36.3484 47.9199 36.7984C45.0741 38.2233 42.6368 39.5649 40.0952 41.119C39.3661 41.5647 38.7621 41.9272 38.7412 41.9272C38.6787 41.9272 38.6995 41.873 39.108 41.1314C40.4257 38.7272 41.4856 35.9417 42.1426 33.0041L42.1828 32.7902C42.2412 32.5318 42.3077 32.3735 42.3537 32.386L42.3536 32.3903ZM76.0516 28.9322C76.3808 29.0451 76.6659 29.186 76.9289 29.358L76.9141 29.3489C80.7551 31.571 84.0736 34.088 87.0445 36.9621L87.0304 36.9486C87.8387 37.7401 89.8095 39.794 89.7803 39.8107L88.268 39.9315C79.8883 40.69 72.2661 42.0049 64.864 43.8727L65.8945 43.6525C65.361 43.7775 64.9028 43.8859 64.8695 43.8859C64.8403 43.8859 65.4238 43.3024 66.1652 42.5859C69.9528 39.2164 73.0424 35.1558 75.2524 30.59L75.3522 30.3615C75.7189 29.6199 76.0315 28.9741 76.044 28.9366H76.0523L76.0516 28.9322ZM74.8933 28.628C74.9225 28.6614 73.9184 30.2321 73.2934 31.128C72.3768 32.4362 71.056 34.1528 68.0395 37.9483L64.0646 42.9562C63.7017 43.4271 63.3281 43.8896 62.944 44.3436C62.8044 44.1679 62.6631 43.9695 62.5321 43.764L62.515 43.7352C60.7638 41.1442 58.7405 38.9158 56.4421 37.0069L56.3902 36.965C56.0208 36.6555 55.6459 36.3528 55.2653 36.0568C55.1496 35.9783 55.0486 35.8919 54.9582 35.7953L54.9572 35.7942C54.9572 35.7526 57.528 34.6527 59.4903 33.8527C63.2922 32.3246 67.1503 30.9497 71.0648 29.7281C72.9063 29.1654 74.8646 28.6031 74.8936 28.6281L74.8933 28.628ZM30.6877 28.5861C30.7294 28.5445 32.8293 29.0362 33.9752 29.3569C36.2032 29.981 37.9932 30.5964 39.7401 31.2959L39.3582 31.161C39.3582 31.1775 38.954 31.5316 38.4624 31.9441C36.4833 33.5982 34.5709 35.3315 32.2837 37.5396C31.8718 37.9522 31.444 38.348 31.0004 38.7271C30.9712 38.7271 30.9587 38.6312 30.9754 38.5187C31.1083 37.382 31.1841 36.0648 31.1841 34.7299C31.1841 32.842 31.0325 30.9895 30.7407 29.1839L30.7671 29.3818C30.7228 29.1495 30.6929 28.8767 30.6842 28.5987L30.684 28.5904L30.6877 28.5861ZM58.1029 22.2865C58.2404 22.2865 60.9986 23.0364 62.4235 23.4655C66.5741 24.7053 69.9947 25.9856 73.3098 27.4599L72.7352 27.2318L73.8392 27.7319L73.0602 27.9111C66.2899 29.4337 60.4612 31.29 54.8578 33.5836L55.6111 33.3106C55.1655 33.494 54.7776 33.6441 54.7488 33.6441C54.8332 33.3494 54.9395 33.0939 55.0712 32.8539L55.0613 32.8737C56.5212 29.9415 57.5559 26.5326 57.9765 22.9362L57.9905 22.7907C58.0153 22.5115 58.0652 22.2867 58.1028 22.2867L58.1029 22.2865ZM56.953 22.1073C56.8915 22.8499 56.7733 23.5315 56.6008 24.1911L56.6196 24.1073C55.6277 27.4396 54.3317 30.3397 52.7152 33.0246L52.8114 32.8525C52.5981 33.2505 52.3882 33.5857 52.1586 33.9059L52.1779 33.8775C51.8245 33.7265 51.5246 33.5662 51.2407 33.3835L51.2654 33.3985C49.6223 32.4264 47.6701 31.453 45.6487 30.6126L45.3282 30.4945C44.9368 30.3406 44.5507 30.1739 44.17 29.9944C44.0699 29.9027 48.9323 26.6822 51.5112 25.1363C53.574 23.8995 56.8947 22.0495 56.9531 22.1079L56.953 22.1073ZM40.8704 18.9246C40.9163 18.8829 47.1368 19.9578 49.9616 20.4995C52.0698 20.9038 55.1155 21.5411 55.2987 21.6203C55.3904 21.6536 55.0737 21.8284 54.0614 22.2871C50.2365 23.9675 46.9806 25.7679 43.9093 27.8227L44.1452 27.6742C43.3702 28.1909 42.7244 28.6157 42.7119 28.6157C42.6934 28.4068 42.6827 28.1635 42.6827 27.9179C42.6827 27.8262 42.6843 27.735 42.6872 27.644L42.687 27.6573V27.5987C42.687 24.6491 42.0882 21.8396 41.0054 19.2848L41.058 19.4245C40.9875 19.2835 40.9236 19.1174 40.8752 18.9448L40.8703 18.9246H40.8704ZM39.8289 18.7745C40.0802 19.2621 40.2681 19.8284 40.3623 20.4257L40.3665 20.4576C40.8325 22.2703 41.1 24.3512 41.1 26.4946C41.1 27.2691 41.0652 28.0354 40.9968 28.792L41.0039 28.6946L40.9539 28.853L40.1746 28.6029C38.5581 28.0861 35.9249 27.3113 33.6665 26.6863C32.8788 26.4847 32.1011 26.2486 31.3334 25.978C32.1871 25.0299 33.0601 24.157 33.9765 23.3313L34.0082 23.3032C35.7392 21.793 37.6361 20.3063 39.6094 18.9207L39.8288 18.7746L39.8289 18.7745ZM26.7171 16.2833C27.0221 16.313 27.2985 16.363 27.5668 16.4334L27.5296 16.425C30.1086 16.9918 34.7167 17.8833 37.6748 18.3832C38.0105 18.4217 38.3154 18.4905 38.6069 18.5884L38.575 18.5791C38.4588 18.6838 38.3237 18.7708 38.1762 18.8338L38.1668 18.8375C37.6709 19.0875 35.6585 20.2915 34.9878 20.7415C33.3801 21.8051 31.9777 22.931 30.6865 24.1718L30.6964 24.1624C30.4296 24.4359 30.156 24.7026 29.8756 24.9626C29.8122 24.8047 29.7534 24.614 29.7096 24.4175L29.7048 24.3917C28.89 21.4924 27.9673 19.0308 26.8666 16.6688L26.9964 16.9789C26.8864 16.7548 26.7878 16.5257 26.7005 16.2915L26.7171 16.2833ZM19.2592 14.2248C19.4874 14.2797 19.678 14.3398 19.863 14.4108L19.83 14.3997C20.3968 14.5914 21.1467 14.8164 22.0217 15.0621C22.6301 15.2288 23.3007 15.4122 24.0174 15.5912C24.9257 15.8246 25.6799 16.0246 25.6882 16.0371C25.7883 16.1497 27.3173 21.0284 27.8381 22.8991C28.0382 23.6157 28.1882 24.2115 28.1757 24.224C28.0379 24.054 27.9133 23.8628 27.8092 23.6593L27.8006 23.6407C25.7139 20.1768 23.112 17.2539 20.0634 14.8776L19.9928 14.8247C19.7411 14.6336 19.4967 14.4336 19.2595 14.2245L19.2592 14.2248ZM15.3595 10.4372C15.2589 10.6333 15.1999 10.865 15.1999 11.1106C15.1999 11.3427 15.2526 11.5626 15.3468 11.7587L15.343 11.7497C15.7237 12.4061 16.1957 12.9631 16.7495 13.4249L16.7595 13.4329C16.7595 13.4329 23.4884 19.999 24.3133 20.949C27.7242 24.6753 29.8141 29.6603 29.8141 35.1331C29.8141 35.2043 29.8138 35.2755 29.813 35.3465V35.3357C29.8174 35.5024 29.8198 35.699 29.8198 35.8962C29.8198 39.6554 28.9359 43.2083 27.3645 46.3584L27.4259 46.2224C22.3337 55.3641 15.6087 62.994 7.57495 68.9616L7.38533 69.0962L8.88525 68.5961C10.4064 67.5396 12.1678 66.4798 13.9966 65.5325L14.2681 65.4045C21.1608 61.6047 29.4016 57.8354 37.9277 54.6508L39.2624 54.2138C53.4808 48.8686 70.5096 44.1584 88.0527 40.9142L91.3552 40.4063L91.1468 40.0729C90.1147 38.4363 89.113 37.0407 88.0373 35.7069L88.1055 35.7941C85.1512 32.1794 81.5888 29.1898 77.5538 26.9473L77.3688 26.853C70.6198 23.2702 62.7873 20.5428 54.5156 19.0898L54.0368 19.02C51.0026 18.4495 47.9597 17.9287 44.908 17.4577C39.4501 16.6207 34.0004 15.7318 28.559 14.7912C26.7883 14.4786 24.1426 14.0371 22.3885 13.6576C20.7611 13.3112 19.4191 12.9406 18.1082 12.5026L18.3846 12.5828C17.2683 12.1456 15.6975 11.7205 15.36 10.4373L15.3595 10.4372Z" fill="white"/>
</svg>
