<svg width="100" height="100" viewBox="0 0 100 100" fill="none" xmlns="http://www.w3.org/2000/svg">
<path d="M57.3049 98.5622C57.4549 98.223 57.8335 97.9873 58.1084 97.7016C62.3044 93.3021 66.536 88.9419 70.6748 84.4889C71.9699 83.2927 72.9707 81.8132 73.5989 80.1659C74.2271 78.5186 74.4656 76.7483 74.2958 74.9936C74.1659 74.2421 73.9954 73.4983 73.7851 72.7653C72.6567 73.8366 71.6068 74.8115 70.5498 75.7935C68.9072 77.3219 67.2716 78.8574 65.6147 80.3679C64.6376 81.3641 63.3814 82.0405 62.0118 82.3076C60.6423 82.5748 59.224 82.4201 57.9442 81.8642C56.6486 81.3882 55.5214 80.5423 54.7025 79.4313C53.8835 78.3203 53.4089 76.9933 53.3376 75.6149C53.2992 75.4376 53.2479 75.2634 53.184 75.0936C51.9234 76.1649 50.7164 77.1505 49.5202 78.1646L24.6552 99.2336C24.4838 99.38 24.2981 99.5621 24.1375 99.7049H57.2871L57.2371 99.6728C57.0586 99.5478 57.1514 98.8907 57.3049 98.5622Z" fill="#FFCEBF"/>
<path d="M22.6191 98.5622C22.914 98.1782 23.2699 97.8453 23.6726 97.5766L58.0828 68.3836C60.4301 66.391 62.7668 64.3877 65.0927 62.3736C65.3801 62.1732 65.6053 61.896 65.7426 61.5737C66.299 59.1494 66.3778 56.6398 65.9747 54.1853C65.6176 54.4353 65.4248 54.5424 65.2605 54.7174C62.443 57.2385 59.6398 59.7811 56.8079 62.2879C55.8699 63.2321 54.6565 63.8545 53.3424 64.0656C52.0283 64.2767 50.6811 64.0656 49.4945 63.4628C48.2839 62.8913 47.2708 61.9725 46.584 60.8234C45.8972 59.6743 45.5678 58.3469 45.6378 57.01C45.6378 56.7064 45.6378 56.4065 45.6378 55.853C45.12 56.2315 44.7415 56.485 44.388 56.7707C30.6158 67.798 16.846 78.8169 3.0786 89.8275C2.45725 90.3239 1.71448 91.4309 0.900291 90.356C0.0861022 89.2812 1.32524 88.8384 1.95017 88.3384C16.627 76.5612 31.311 64.7948 46.0021 53.039C48.3947 51.1214 48.5518 50.3179 46.9948 47.2719L46.0664 48.1432C43.5202 50.5108 40.9455 52.8462 38.4387 55.253C37.4104 56.2449 36.1225 56.9257 34.7238 57.2169C33.325 57.508 31.8724 57.3975 30.5338 56.8983C29.1951 56.3991 28.025 55.5314 27.1584 54.3954C26.2919 53.2595 25.7643 51.9016 25.6366 50.4786C25.1617 50.8357 24.751 51.0964 24.3618 51.3999L2.57866 68.2836C2.20296 68.6521 1.77451 68.9626 1.30739 69.205C0.954833 69.3115 0.576249 69.2926 0.236084 69.1514V99.7228H22.5763C22.4932 99.5392 22.4539 99.3388 22.4613 99.1375C22.4687 98.9361 22.5228 98.7392 22.6191 98.5622Z" fill="#FFCEBF"/>
<path d="M82.9695 1.51297C82.3624 3.50202 81.7732 5.49464 81.2411 7.50512C80.7497 8.92588 80.8068 10.479 81.4014 11.8598C81.996 13.2406 83.0851 14.3493 84.455 14.9685C88.6453 17.1711 93.3671 18.1605 98.0891 17.8253V1.85222C98.0367 1.50201 98.0561 1.14479 98.1463 0.802343C98.2463 0.608637 98.3724 0.429601 98.5212 0.270264H82.9552C83.1945 0.548802 83.1123 1.03803 82.9695 1.51297Z" fill="#FF6196"/>
<path d="M51.705 35.8268C51.631 37.6097 51.0073 39.326 49.9195 40.7405C46.0308 45.7605 41.5649 50.3055 36.614 54.2818C35.8156 55.0208 34.8036 55.488 33.7233 55.6163C32.6429 55.7446 31.5497 55.5274 30.6004 54.996C29.6555 54.5923 28.8589 53.9059 28.3198 53.0312C27.7808 52.1565 27.5259 51.1363 27.59 50.1108C27.7044 48.8514 28.2273 47.6638 29.0791 46.7291C34.6154 41.4501 40.6137 36.678 47.002 32.4701C47.4204 32.142 47.9314 31.9537 48.4626 31.9319C48.9939 31.9102 49.5185 32.0559 49.9624 32.3486C50.5458 32.7109 51.0174 33.2276 51.325 33.8416C51.6326 34.4555 51.7642 35.1427 51.705 35.8268Z" fill="#FF87AF"/>
<path d="M47.4267 57.4709C47.3439 56.6816 47.4452 55.8838 47.7228 55.1402C48.0004 54.3967 48.4467 53.7276 49.0266 53.1857C54.4473 48.186 60.2631 43.6324 66.4173 39.5695C66.603 39.4516 66.7745 39.3338 66.978 39.2124C67.5156 38.8243 68.1669 38.626 68.8295 38.6486C69.4921 38.6712 70.1284 38.9135 70.6383 39.3374C71.1316 39.7552 71.4806 40.318 71.6358 40.9456C71.7909 41.5732 71.7443 42.2338 71.5025 42.8334C70.7239 45.4266 69.2869 47.774 67.3315 49.6469C63.3856 53.575 59.2896 57.3745 55.1901 61.1455C54.5693 61.7839 53.7538 62.1977 52.872 62.3219C51.9902 62.446 51.0922 62.2733 50.3193 61.8311C49.5071 61.4091 48.8155 60.7875 48.3095 60.0248C47.8036 59.2621 47.4998 58.3833 47.4267 57.4709Z" fill="#FF87AF"/>
<path d="M73.1955 59.831C72.1956 60.9023 71.1672 61.9236 70.2066 63.0199C69.9177 63.4436 69.6781 63.8989 69.4924 64.3769C70.0209 64.534 70.6387 64.9482 71.0672 64.8018C73.2491 64.0698 75.3774 63.1913 77.7735 62.2664C77.2522 63.4663 76.8594 64.5733 76.3059 65.5874C74.0256 69.4196 71.17 72.8786 67.839 75.8434C66.5725 77.0647 65.2572 78.2324 63.893 79.3465C63.1707 79.946 62.302 80.3429 61.3759 80.4965C60.4498 80.65 59.4995 80.5549 58.6223 80.2207C57.745 79.8865 56.9723 79.3253 56.3831 78.5944C55.794 77.8636 55.4095 76.9894 55.2691 76.0612C55.2118 75.5451 55.2575 75.0228 55.4033 74.5245C55.5492 74.0262 55.7925 73.5617 56.119 73.158C60.9785 67.8809 66.5321 63.2883 72.6277 59.506C72.7018 59.4773 72.7804 59.4616 72.8598 59.4596L73.1955 59.831Z" fill="#FF87AF"/>
<path d="M81.3877 45.608L87.4977 18.4684L91.7829 19.4718L89.5724 26.1889C87.5084 32.4382 85.4194 38.6874 83.4053 44.9438C83.0125 46.1008 82.4983 46.3151 81.3877 45.608Z" fill="#FF6196"/>
<path d="M74.488 61.57C75.1344 59.1024 75.7772 56.8206 76.32 54.5137C76.849 52.2766 77.8551 50.1801 79.2696 48.368C80.1374 47.2288 81.1123 47.6824 82.1086 47.9288C83.0299 48.1537 83.262 48.8287 83.3013 49.7143C83.4466 52.1633 82.7007 54.5822 81.2015 56.5242C79.4167 58.7368 77.1097 60.4708 74.488 61.57Z" fill="#FF6196"/>
<path d="M99.9532 3.19499C100.006 2.39968 99.9862 1.60114 99.8925 0.809562C99.8188 0.588454 99.6729 0.398541 99.4783 0.27034C99.3197 0.141441 99.1342 0.049901 98.9355 0.00251446C98.8212 -0.0189116 98.6605 0.0989312 98.5069 0.266768C98.3582 0.426105 98.232 0.605142 98.132 0.798849C98.0418 1.14129 98.0224 1.49852 98.0748 1.84872V17.8183C93.3528 18.1534 88.631 17.1641 84.4408 14.9615C83.0708 14.3423 81.9817 13.2335 81.3871 11.8527C80.7925 10.4719 80.7354 8.91881 81.2268 7.49805C81.7589 5.48758 82.3481 3.49496 82.9552 1.50591C83.0981 1.03096 83.1802 0.541736 82.9552 0.263198C82.8301 0.127602 82.6573 0.045701 82.4731 0.0346537C82.2372 0.0371981 82.0088 0.117535 81.8232 0.263198C81.5562 0.422931 81.3434 0.659351 81.2126 0.941689C80.4984 3.08429 79.8699 5.24832 79.3235 7.43378C79.1172 8.29499 79.0617 9.18543 79.1592 10.0656C79.2974 11.6582 79.8897 13.1777 80.8658 14.4436C81.8418 15.7096 83.1607 16.6689 84.6657 17.2076C85.3406 17.4897 85.737 17.7683 85.5478 18.6574C85.2871 19.7859 85.0335 20.9143 84.7764 22.0463C83.0266 29.7169 81.2864 37.3909 79.5556 45.0686C79.5068 45.4109 79.3563 45.7307 79.1235 45.9864C77.9828 46.8931 77.0243 48.0079 76.2989 49.2717C75.3744 50.9395 74.7348 52.7498 74.4062 54.6282C74.3432 55.2273 74.1267 55.8001 73.7776 56.2912C73.4286 56.7822 72.9588 57.175 72.4136 57.4314C70.9245 58.1849 69.5568 59.1598 67.9034 60.174C68.0137 58.1857 67.9922 56.1923 67.8391 54.2068C67.7133 53.5961 67.74 52.9637 67.9169 52.3657C68.0938 51.7678 68.4155 51.2226 68.8533 50.7786C71.0313 48.621 72.5837 45.9134 73.3456 42.9439C73.5732 42.2555 73.6356 41.5232 73.5278 40.8063C73.42 40.0893 73.145 39.4078 72.725 38.8168C72.3051 38.2258 71.752 37.742 71.1104 37.4043C70.4688 37.0666 69.7568 36.8847 69.0319 36.8731C67.8582 36.8601 66.7058 37.1875 65.7144 37.8159C62.2969 40.1228 58.9723 42.5725 55.6727 45.0507C53.7194 46.522 51.8803 48.1504 49.9877 49.6931C49.9061 49.6054 49.8354 49.5083 49.777 49.4038C49.7408 49.1409 49.67 48.8839 49.5663 48.6396C47.9844 46.197 49.0807 44.4223 50.7983 42.5975C52.5878 40.7217 53.5766 38.2228 53.5551 35.6304C53.6106 34.3096 53.197 33.0117 52.3874 31.9666C51.9561 31.4361 51.4247 30.9956 50.8233 30.6703C49.9691 30.2028 48.9924 30.0076 48.0241 30.111C47.0558 30.2144 46.1423 30.6115 45.4061 31.2488L44.4098 31.963C42.1351 33.5914 39.8318 35.1769 37.6427 36.9196C34.4467 39.4621 31.3256 42.1118 28.2653 44.8258C26.8369 46.0863 25.7941 47.8076 24.3122 48.9789C16.5845 55.0817 8.77472 61.0739 0.993502 67.1053C0.725943 67.2649 0.479924 67.4581 0.261446 67.6802C0.238955 67.7127 0.219811 67.7474 0.20431 67.7838C0.0400434 68.1659 -0.0992255 68.7979 0.0936088 69.0301C0.140878 69.0804 0.198008 69.1205 0.261446 69.1479C0.601611 69.2891 0.980195 69.308 1.33275 69.2015C1.79987 68.9591 2.22833 68.6486 2.60403 68.2801L24.3872 51.3964C24.7764 51.0929 25.1871 50.8179 25.662 50.4751C25.7897 51.8981 26.3173 53.256 27.1838 54.3919C28.0503 55.5279 29.2205 56.3955 30.5592 56.8948C31.8978 57.394 33.3504 57.5045 34.7491 57.2133C36.1479 56.9222 37.4357 56.2414 38.4641 55.2495C40.9638 52.8427 43.5456 50.5072 46.0917 48.1397L47.0202 47.2683C48.5771 50.3144 48.42 51.1179 46.0274 53.0355C31.3244 64.8008 16.6321 76.5684 1.95053 88.3385C1.32561 88.8384 0.0900381 89.2919 0.900656 90.3561C1.71127 91.4203 2.45761 90.324 3.07897 89.8276C16.8535 78.8265 30.6186 67.8111 44.3741 56.7815C44.7312 56.4958 45.1061 56.2423 45.6239 55.8638V57.0208C45.5539 58.3576 45.8833 59.6851 46.5701 60.8342C47.2569 61.9833 48.27 62.9021 49.4806 63.4736C50.6672 64.0764 52.0144 64.2874 53.3285 64.0763C54.6426 63.8652 55.8559 63.2429 56.794 62.2987C59.6258 59.799 62.4291 57.2493 65.2466 54.7282C65.4251 54.5675 65.6323 54.4461 65.9608 54.1961C66.3639 56.6506 66.285 59.1601 65.7287 61.5845C65.5914 61.9068 65.3661 62.184 65.0788 62.3844C62.7505 64.3961 60.4138 66.3994 58.0689 68.3944L23.673 97.591C23.2703 97.8596 22.9144 98.1926 22.6195 98.5766C22.5254 98.7517 22.4726 98.946 22.4652 99.1447C22.4578 99.3434 22.4959 99.5412 22.5767 99.7228C22.738 99.8437 22.9245 99.9267 23.1224 99.9657C23.3202 100.005 23.5242 99.9985 23.7194 99.9478C23.8734 99.9031 24.0151 99.8237 24.1336 99.7157C24.3122 99.5729 24.4907 99.3907 24.6514 99.2443L49.5163 78.1754C50.7126 77.1612 51.9196 76.1613 53.1802 75.1043C53.244 75.2741 53.2953 75.4484 53.3337 75.6257C53.4051 77.0041 53.8797 78.3311 54.6986 79.4421C55.5176 80.553 56.6448 81.399 57.9403 81.875C59.2201 82.4309 60.6385 82.5855 62.008 82.3184C63.3775 82.0512 64.6338 81.3749 65.6108 80.3787C67.2678 78.8682 68.9033 77.3326 70.546 75.8042C71.6173 74.8222 72.6529 73.8366 73.7813 72.776C73.9915 73.5091 74.162 74.2529 74.2919 75.0043C74.4561 76.7533 74.2148 78.5166 73.5868 80.1573C72.9588 81.7979 71.961 83.2716 70.671 84.4639C66.5322 88.9206 62.3005 93.2807 58.1046 97.6767C57.8296 97.9623 57.4511 98.198 57.3011 98.5373C57.1511 98.8765 57.0547 99.5407 57.2333 99.6836L57.2833 99.7157C57.6577 99.8978 58.0788 99.9613 58.4903 99.8978C58.6056 99.8742 58.7083 99.8095 58.7795 99.7157C58.8795 99.6121 58.9759 99.4836 59.0723 99.3872C62.4719 95.8733 65.8894 92.3773 69.264 88.8384C70.6261 87.4584 71.9067 86.0001 73.0992 84.4711C74.6543 82.7496 75.6854 80.6198 76.0712 78.3323C76.4571 76.0448 76.1818 73.6947 75.2775 71.5583C75.1804 71.082 75.2753 70.5865 75.5418 70.1799C75.7739 69.78 76.031 69.3907 76.2953 69.0051C77.1408 67.9072 77.8451 66.7075 78.3915 65.4341C79.4473 62.3087 81.0681 59.4037 83.173 56.8636C84.1408 55.6367 84.8065 54.1996 85.1167 52.668C85.4268 51.1365 85.3727 49.5536 84.9585 48.0468C84.8122 47.4739 84.8122 46.8735 84.9585 46.3006C86.7655 40.7048 88.626 35.1269 90.4686 29.5454C91.2947 27.0457 92.116 24.5532 92.9326 22.0678L93.6932 19.7573C95.3145 19.7573 96.8428 19.7252 98.3641 19.7573C99.6282 19.793 100.014 19.2002 99.9996 17.9718C99.9246 13.0438 99.9532 8.11941 99.9532 3.19499ZM36.6143 54.2818C35.8159 55.0208 34.8039 55.488 33.7236 55.6163C32.6432 55.7446 31.55 55.5275 30.6007 54.996C29.6558 54.5923 28.8592 53.906 28.3201 53.0312C27.7811 52.1565 27.5262 51.1363 27.5903 50.1109C27.7047 48.8514 28.2276 47.6639 29.0795 46.7291C34.6157 41.4502 40.614 36.6781 47.0023 32.4701C47.351 32.2236 47.7476 32.0533 48.1665 31.9702C48.4474 31.9183 48.7354 31.9183 49.0164 31.9702C49.3528 32.0357 49.6739 32.1641 49.9627 32.3487C50.5466 32.7112 51.0187 33.2285 51.3263 33.8432C51.6339 34.4578 51.7651 35.1457 51.7053 35.8304C51.6313 37.6133 51.0076 39.3296 49.9198 40.7441C46.0308 45.7628 41.565 50.3066 36.6143 54.2818ZM55.1835 61.1703C54.5627 61.8087 53.7472 62.2225 52.8654 62.3466C51.9836 62.4708 51.0856 62.2981 50.3126 61.8559C49.499 61.4329 48.8065 60.8097 48.3005 60.045C47.7944 59.2802 47.4914 58.3992 47.4201 57.485C47.3372 56.6956 47.4386 55.8978 47.7162 55.1543C47.9938 54.4107 48.4401 53.7417 49.0199 53.1998C54.4407 48.2 60.2565 43.6465 66.4107 39.5835C66.5964 39.4657 66.7678 39.3479 66.9714 39.2264C67.509 38.8384 68.1603 38.64 68.8229 38.6627C69.4855 38.6853 70.1218 38.9276 70.6317 39.3514C71.125 39.7693 71.474 40.332 71.6292 40.9597C71.7843 41.5873 71.7377 42.2478 71.4959 42.8474C70.7173 45.4407 69.2803 47.7881 67.3249 49.6609C63.3861 53.5962 59.2902 57.385 55.1906 61.156L55.1835 61.1703ZM76.2917 65.6019C74.0146 69.428 71.1639 72.8821 67.8391 75.8435C66.5726 77.0648 65.2573 78.2325 63.8932 79.3467C63.1708 79.9462 62.3021 80.343 61.376 80.4966C60.4499 80.6502 59.4996 80.555 58.6224 80.2209C57.7452 79.8867 56.9724 79.3254 56.3833 78.5946C55.7941 77.8638 55.4096 76.9895 55.2692 76.0614C55.212 75.5453 55.2576 75.023 55.4035 74.5247C55.5494 74.0263 55.7926 73.5619 56.1191 73.1581C60.9786 67.8811 66.5323 63.2885 72.6279 59.5062C72.702 59.4774 72.7805 59.4617 72.86 59.4598L73.2171 59.8169C72.2172 60.8882 71.1888 61.9095 70.2281 63.0058C69.9393 63.4295 69.6997 63.8848 69.5139 64.3627C70.0425 64.5199 70.6602 64.9341 71.0888 64.7877C72.8136 64.2092 74.5098 63.5378 76.3274 62.8236L77.7951 62.2523C77.2452 63.4664 76.8524 64.5734 76.2989 65.5876L76.2917 65.6019ZM81.1947 56.5494C79.8627 58.2452 78.1931 59.646 76.2917 60.6632C75.7037 60.9917 75.1002 61.2988 74.4812 61.5845C75.1169 59.1527 75.7525 56.8993 76.2917 54.621L76.3131 54.5282C76.8421 52.2911 77.8483 50.1947 79.2628 48.3825C80.1305 47.2433 81.1054 47.6969 82.1017 47.9433C83.0231 48.1682 83.2552 48.8432 83.2945 49.7288C83.4409 52.1757 82.6977 54.5931 81.2019 56.5351L81.1947 56.5494ZM89.5509 26.1958C87.4868 32.4451 85.3978 38.6944 83.3837 44.9508C83.0052 46.1256 82.491 46.3399 81.3804 45.6328L86.6762 22.0892L87.4904 18.4753L91.7756 19.4788C91.4828 20.3608 91.2007 21.2286 90.915 22.0892L89.5509 26.1958Z" fill="black"/>
</svg>
