<svg width="100" height="100" viewBox="0 0 100 100" fill="none" xmlns="http://www.w3.org/2000/svg">
<path d="M7.10701 49.9971C7.10701 66.9754 16.9734 81.6465 31.2805 88.6001L10.8205 32.5414C8.36778 38.0337 7.10236 43.982 7.10701 49.9971ZM78.954 47.8327C78.954 51.5046 77.5429 55.7657 75.6878 61.6982L71.4104 75.9947L55.9101 29.8873C58.4908 29.7518 60.8192 29.4784 60.8192 29.4784C63.1298 29.205 62.858 25.809 60.5442 25.9453C60.5442 25.9453 53.5988 26.4897 49.1133 26.4897C44.8987 26.4897 37.8153 25.9453 37.8153 25.9453C35.504 25.809 35.2331 29.3429 37.5444 29.4784C37.5444 29.4784 39.7325 29.7518 42.0422 29.8873L48.7256 48.1959L39.3383 76.3473L23.7189 29.8881C26.3044 29.7526 28.6288 29.4792 28.6288 29.4792C30.9377 29.2058 30.6651 25.8098 28.3529 25.9461C28.3529 25.9461 21.4083 26.4905 16.922 26.4905C16.1173 26.4905 15.1681 26.4701 14.1618 26.4399C21.8311 14.7951 35.0143 7.107 49.9988 7.107C61.1653 7.107 71.332 11.3755 78.9638 18.3666C78.7777 18.356 78.5974 18.3323 78.4072 18.3323C74.1951 18.3323 71.2055 22.0025 71.2055 25.9453C71.2055 29.4784 73.2426 32.4704 75.4169 36.0035C77.05 38.8608 78.954 42.5318 78.954 47.8327ZM50.7513 53.749L63.9369 89.8692C64.0204 90.0751 64.1226 90.2729 64.2422 90.4601C59.7836 92.0271 54.9936 92.8914 49.9988 92.8914C45.8971 92.8914 41.8166 92.3027 37.8823 91.1432L50.7513 53.749ZM87.6346 29.4188C91.0929 35.7256 92.9004 42.8044 92.8889 49.9971C92.8889 65.8214 84.312 79.6363 71.5606 87.0722L84.6622 49.1924C87.1106 43.0746 87.9235 38.1818 87.9235 33.8293C87.9235 32.2525 87.819 30.785 87.6346 29.4188ZM49.9988 0C77.5666 0 99.9992 22.4285 100 49.9971C100 77.5698 77.5666 99.9976 49.9988 99.9976C22.4293 99.9976 0 77.569 0 49.9971C0 22.4285 22.4302 0 49.9988 0ZM49.9988 97.705C76.3016 97.705 97.7026 76.3032 97.7026 49.9971C97.7026 23.6936 76.3024 2.29337 49.9988 2.29337C23.6936 2.29337 2.29256 23.6936 2.29256 49.9971C2.29256 76.3032 23.6944 97.705 49.9988 97.705Z" fill="#00749A"/>
</svg>
